<?xml version="1.0" standalone="no"?>
<!DOCTYPE svg PUBLIC "-//W3C//DTD SVG 1.1//EN" "http://www.w3.org/Graphics/SVG/1.1/DTD/svg11.dtd" >
<svg xmlns="http://www.w3.org/2000/svg">
<metadata></metadata>
<defs>
<font id="gatsbyflfregular" horiz-adv-x="573" >
<font-face units-per-em="2048" ascent="1638" descent="-410" />
<missing-glyph horiz-adv-x="500" />
<glyph horiz-adv-x="2048" />
<glyph horiz-adv-x="2048" />
<glyph horiz-adv-x="682" />
<glyph horiz-adv-x="604" d="M145 834q35 -23 79 -35.5t91 -12.5q96 0 168 50l-10 18q-70 -45 -158 -45q-41 0 -82.5 11t-78.5 34z" />
<glyph horiz-adv-x="337" d="M154 864q0 -18 7 -36.5t23 -18.5t22.5 18.5t6.5 36.5q0 16 -6 35t-23 19q-16 0 -23 -18.5t-7 -35.5z" />
<glyph horiz-adv-x="430" d="M113 877q0 -41 29.5 -70t70.5 -29t70.5 29t29.5 70t-29.5 70.5t-70.5 29.5t-70.5 -29.5t-29.5 -70.5zM133 877q0 33 23.5 56t56.5 23t56.5 -23.5t23.5 -55.5q0 -33 -23.5 -55.5t-56.5 -22.5t-56.5 22.5t-23.5 55.5z" />
<glyph unicode="&#xa;" horiz-adv-x="577" d="M215 889l21 -6l63 241l-20 6zM293 889l20 -6l64 241l-21 6z" />
<glyph horiz-adv-x="266" d="M92 -94q0 -53 14.5 -104.5t51.5 -96.5l18 12q-35 43 -48 94.5t-13 102.5q0 62 12 111h-21q-6 -27 -10 -56.5t-4 -62.5z" />
<glyph horiz-adv-x="542" d="M66 928l204 -103l201 101l-8 16l-193 -96l-196 98z" />
<glyph unicode="&#xd;" horiz-adv-x="272" d="M141 0h21v666h-21v-666z" />
<glyph horiz-adv-x="901" d="M-20 -143l16 -9l883 1434l-19 8z" />
<glyph horiz-adv-x="452" d="M61 645h52v-645h20v645h164v21h-164v430q0 33 9.5 63.5t30 55t52 39t76.5 14.5v20q-98 -4 -143 -61.5t-45 -130.5v-430h-52v-21zM342 823q0 -14 3 -29.5t13 -15.5t13.5 15.5t3.5 29.5t-3 29.5t-14 15.5q-10 0 -13 -15t-3 -30zM348 0h21v666h-21v-666z" />
<glyph horiz-adv-x="491" d="M61 645h52v-645h20v645h164v21h-164v430q0 72 42 121t126 51v20q-82 -2 -135 -51t-53 -141v-430h-52v-21zM367 0h20v1288h-20v-1288z" />
<glyph horiz-adv-x="616" d="M20 469l89 88v-557h458v20h-438v553l109 109v27l-109 -109v619h-20v-635l-89 -88v-27z" />
<glyph horiz-adv-x="266" d="M25 469l100 100v-569h20v586l97 96v27l-97 -97v676h-20v-692l-100 -100v-27z" />
<glyph horiz-adv-x="686" d="M49 0h586v20h-555l534 1199h-512v-21h484zM158 1411l200 -100l205 102l-8 17l-197 -99l-192 96z" />
<glyph horiz-adv-x="628" d="M47 0h528v20h-483l465 646h-461v-21h416zM131 928l205 -103l201 101l-9 16l-192 -96l-197 98z" />
<glyph unicode=" " />
<glyph unicode="!" horiz-adv-x="184" d="M70 45q0 -16 5 -31.5t19 -15.5t19.5 15.5t5.5 31.5q0 14 -5 28.5t-20 14.5q-14 0 -19 -14.5t-5 -28.5zM82 184h24v1035h-24v-1035z" />
<glyph unicode="&#x22;" horiz-adv-x="251" d="M80 997q0 -4 10 -3t10 3v250h-20v-250zM160 997q0 -4 10 -3t10 3v250h-20v-250z" />
<glyph unicode="#" horiz-adv-x="634" d="M106 711h123l-28 -127h20l31 127h123l-31 -127h21l30 127h127l4 20h-127l27 115h123l4 20h-123l29 127h-21l-28 -127h-123l28 127h-20l-29 -127h-135l-4 -20h135l-26 -115h-125zM256 731l27 115h123l-27 -115h-123z" />
<glyph unicode="$" horiz-adv-x="798" d="M51 258q6 -47 25.5 -91t54.5 -80t84 -61.5t115 -37.5v-97h20v93q12 -4 27 -4h33h22q12 0 23 2v-91h20v93q51 6 101.5 27.5t90.5 61.5t64.5 101.5t24.5 147.5q0 70 -22.5 123t-61.5 95t-89.5 76.5t-107.5 65.5v522q57 -14 109.5 -53t85.5 -125l16 8q-31 86 -86 129 t-125 60v71h-20v-67q-10 2 -23 2h-24h-29q-14 0 -29 -4v69h-20v-73q-39 -8 -76 -26.5t-65.5 -49.5t-46 -73t-17.5 -97q0 -51 19.5 -91t50 -70t66.5 -51.5t69 -33.5v-721q-127 27 -187.5 98.5t-70.5 157.5zM145 975q0 53 16.5 92t42 66.5t58.5 44t68 24.5v-452 q-27 12 -58.5 30.5t-59.5 46t-47.5 64.5t-19.5 84zM350 4v715q23 -10 49.5 -23.5t55.5 -29.5v-664q-10 -2 -23 -2h-22h-33q-14 0 -27 4zM350 741v465q14 4 29 4h29h24t23 -2v-518q-25 14 -53.5 27.5t-51.5 23.5zM475 4v653q51 -31 99.5 -62.5t83 -70.5t56 -89t21.5 -113 q0 -82 -21.5 -139.5t-58.5 -95.5t-84 -57.5t-96 -25.5z" />
<glyph unicode="%" horiz-adv-x="1163" d="M70 928q0 -63 20.5 -117.5t58 -94.5t91 -62.5t116.5 -22.5t116.5 22.5t91.5 62.5t58.5 94.5t20.5 117.5t-20.5 118.5t-58.5 95.5t-91 62.5t-117 22.5q-63 0 -116.5 -22.5t-91 -62.5t-58 -95.5t-20.5 -118.5zM90 928q0 57 19.5 108t55.5 89t84 59.5t107 21.5 q57 0 106.5 -21.5t85.5 -59.5t55.5 -89t19.5 -108q0 -59 -19.5 -109.5t-55.5 -87.5t-85 -58.5t-107 -21.5q-59 0 -107 21.5t-84 58.5t-55.5 87t-19.5 110zM233 274l17 -14l772 772l-14 15zM539 295q0 -63 20.5 -117.5t58 -94.5t91 -62.5t116.5 -22.5t116.5 22.5t91.5 62.5 t58.5 94.5t20.5 117.5t-20.5 118.5t-58.5 95.5t-91 62.5t-117 22.5q-63 0 -116.5 -22.5t-91 -62.5t-58 -95.5t-20.5 -118.5zM559 295q0 57 19.5 108.5t55.5 89t84 59t107 21.5q57 0 106.5 -21.5t85.5 -59t55.5 -89t19.5 -108.5q0 -59 -19.5 -109.5t-55.5 -87.5t-85 -58.5 t-107 -21.5q-59 0 -107 21.5t-84 58.5t-55.5 87.5t-19.5 109.5z" />
<glyph unicode="&#x26;" horiz-adv-x="974" d="M43 379q0 -74 25.5 -143.5t75 -124t122 -88t168.5 -33.5q94 0 167 34.5t123 91t75.5 126t25.5 137.5q0 82 -32 145l147 68l-10 18l-420 -184l8 -23l256 113q29 -68 29 -135q0 -70 -26.5 -136.5t-75 -118.5t-116 -84t-151.5 -32q-80 0 -147.5 29t-115.5 79t-75.5 117.5 t-27.5 145.5q0 74 26.5 138.5t72.5 112.5t107.5 77.5t133.5 35.5v21q-86 16 -140.5 75.5t-54.5 145.5q0 45 17.5 85t48 71t70.5 48t85 17q72 0 123 -37.5t72 -80.5l18 10q-23 49 -77 89t-136 40q-57 0 -102 -21.5t-77 -55.5t-48.5 -79t-16.5 -90q0 -68 38 -129t122 -92v-2 q-78 -18 -135 -56t-96 -89.5t-57.5 -112t-18.5 -123.5z" />
<glyph unicode="'" horiz-adv-x="184" d="M80 997q0 -4 10 -3t10 3v250h-20v-250z" />
<glyph unicode="(" d="M63 557q0 -127 30 -250t87.5 -226.5t142.5 -181t197 -112.5v20q-106 37 -187 113t-136.5 176.5t-84 219t-28.5 241.5t27.5 245t82 224t135.5 175t189 95v21q-117 -23 -203 -97.5t-141 -179t-83 -230.5t-28 -253z" />
<glyph unicode=")" d="M86 1296q106 -37 187 -112.5t136.5 -176t84 -219t28.5 -241.5t-27.5 -245t-82 -224.5t-135 -175t-189.5 -95.5v-20q117 23 203 97.5t141 179t83 230.5t28 253t-30 250t-87 226t-142 181t-198 113v-21z" />
<glyph unicode="*" horiz-adv-x="393" d="M51 956q0 -14 17 -14q10 0 27.5 9.5t34.5 22.5t33.5 26.5t26.5 21.5q-4 -27 -9 -55.5t-5 -51.5t5 -36t16 -13q10 0 15 13.5t5 35.5q0 23 -5 51.5t-9 55.5q10 -10 26.5 -23.5t34 -25.5t33.5 -21.5t29 -9.5q16 0 16 14q0 12 -15.5 23.5t-37 22t-44 18.5t-36.5 12 q14 4 36.5 12.5t44 18.5t37 21.5t15.5 23.5q0 14 -16 14q-12 0 -28.5 -9t-33 -21.5t-33 -25.5t-28.5 -24q6 31 10 57.5t4 49.5t-5 36t-15 13t-15.5 -13.5t-5.5 -35.5q0 -23 4 -49.5t10 -57.5q-27 23 -63.5 51.5t-58.5 28.5q-17 0 -17 -14q0 -12 15.5 -23.5t37 -21.5 t44 -18.5t36.5 -12.5q-12 -4 -34.5 -12t-44 -18.5t-38 -21.5t-16.5 -24z" />
<glyph unicode="+" d="M80 471h205v-205h20v205h205v21h-205v204h-20v-204h-205v-21z" />
<glyph unicode="," horiz-adv-x="184" d="M-12 -127l20 -14l148 202l-19 15z" />
<glyph unicode="-" d="M80 471h430v21h-430v-21z" />
<glyph unicode="." horiz-adv-x="184" d="M70 45q0 -16 5 -31.5t19 -15.5t19.5 15.5t5.5 31.5q0 14 -5 28.5t-20 14.5q-14 0 -19 -14.5t-5 -28.5z" />
<glyph unicode="/" horiz-adv-x="348" d="M-20 -143l20 -4l358 1433l-20 4z" />
<glyph unicode="0" horiz-adv-x="1333" d="M43 612q0 -131 49 -245.5t134 -199.5t200 -134t246 -49t245.5 49t199.5 134t134 199.5t49 245.5t-49 246t-134 200t-199.5 134t-245.5 49t-246 -49t-200 -134t-134 -200t-49 -246zM63 612q0 125 48.5 237t130.5 193.5t192.5 130t237.5 48.5q125 0 236.5 -48.5t193.5 -130 t130 -193.5t48 -237q0 -127 -48 -237.5t-130 -192.5t-193.5 -130t-236.5 -48q-127 0 -237.5 48t-192.5 130t-130.5 192.5t-48.5 237.5z" />
<glyph unicode="1" horiz-adv-x="354" d="M37 985h37l172 172v-1157h24v1219z" />
<glyph unicode="2" horiz-adv-x="737" d="M39 0h635v20h-592l467 625q106 143 106 285q0 63 -24.5 118.5t-67.5 94.5t-99 61.5t-120 22.5q-86 0 -150.5 -30t-117.5 -85l14 -16q106 111 254 110q57 0 110.5 -20.5t92.5 -57t62.5 -88t23.5 -112.5q0 -66 -25.5 -134.5t-72.5 -131.5z" />
<glyph unicode="3" horiz-adv-x="706" d="M72 0q115 0 223 38t193 105.5t136.5 161.5t51.5 207q0 98 -34 177t-88 137.5t-124 95t-141 49.5l248 248h-455v-21h403l-235 -237q84 -16 157.5 -52.5t129 -93.5t87 -133t31.5 -170q0 -109 -51 -200t-134 -155.5t-187.5 -100.5t-210.5 -36v-20z" />
<glyph unicode="4" horiz-adv-x="778" d="M31 358h583v-358h21v358h102v21h-102v409h-21v-409h-548l456 840h-20z" />
<glyph unicode="5" horiz-adv-x="696" d="M66 973q115 0 221 -21.5t188 -75t131 -142.5t49 -222q0 -106 -48 -196.5t-129 -156t-186.5 -102.5t-219.5 -37v-20q123 0 232.5 38t192.5 105.5t131 161.5t48 207q0 139 -51.5 232.5t-134 148.5t-187 77.5t-213.5 22.5l33 207h389v19h-406z" />
<glyph unicode="6" horiz-adv-x="1054" d="M27 485q0 -104 38.5 -195t106.5 -159t159 -106.5t195 -38.5t195.5 38.5t159 106.5t106.5 159t39 195t-39 195.5t-106.5 159t-159 106.5t-195.5 39q-141 0 -255.5 -69.5t-180.5 -184.5q25 63 67 133t102 135.5t139 120t180 88.5l-7 19q-119 -39 -218 -113t-171.5 -171 t-113.5 -215t-41 -243zM47 485q0 98 38 186.5t102.5 153t152.5 102.5t186 38t186.5 -38t153 -102.5t102.5 -152.5t38 -187q0 -98 -38 -186t-102.5 -152.5t-152.5 -102.5t-187 -38q-98 0 -186 38t-152.5 102.5t-102.5 152.5t-38 186z" />
<glyph unicode="7" horiz-adv-x="686" d="M31 1198h604l-473 -1198h22l482 1219h-635v-21z" />
<glyph unicode="8" horiz-adv-x="872" d="M45 379q0 -80 30.5 -151.5t83 -124t124 -83t151.5 -30.5t151.5 30.5t124 83t83 124t30.5 151.5q0 70 -22.5 132t-63.5 113.5t-97 86t-122 49.5q70 27 114 88t44 139q0 49 -19.5 93t-52.5 77t-77 52.5t-93 19.5t-93 -19.5t-77 -52.5t-52 -77t-19 -93q0 -78 45 -140.5 t114 -86.5q-66 -14 -122 -49t-97 -86.5t-64.5 -113.5t-23.5 -132zM66 379q0 76 28.5 143.5t78.5 117.5t117.5 79t143.5 29t143.5 -29t117.5 -79t79 -117.5t29 -143.5t-29 -143.5t-79 -117.5t-117.5 -79t-143.5 -29t-143.5 29t-117.5 79t-78.5 117.5t-28.5 143.5zM213 987 q0 45 17.5 86t47 71t69.5 47t87 17q45 0 86 -17t71 -47t47 -71t17 -86q0 -47 -17 -87t-47 -69.5t-71 -47t-86 -17.5q-47 0 -87 17.5t-69.5 47t-47 69.5t-17.5 87z" />
<glyph unicode="9" horiz-adv-x="802" d="M16 807q0 -80 31 -151.5t83 -124t124 -83t152 -30.5q119 0 212 62.5t140 160.5q-10 -39 -36 -106.5t-74 -151.5t-122.5 -179t-183.5 -188q-4 -4 2 -12t10 -4q76 61 153 146t139.5 185.5t103.5 214t45 234.5v27q0 80 -31 151.5t-83 124t-124 83t-151 30.5 q-80 0 -152 -30.5t-124 -83t-83 -124t-31 -151.5zM37 807q0 76 28.5 143.5t79 117.5t118 79t143.5 29t143 -29t117.5 -79t79 -117.5t28.5 -143.5t-28.5 -143.5t-79 -117.5t-118 -79t-142.5 -29q-76 0 -143.5 29t-118 79t-79 117.5t-28.5 143.5z" />
<glyph unicode=":" horiz-adv-x="184" d="M70 45q0 -16 5 -31.5t19 -15.5t19.5 15.5t5.5 31.5q0 14 -5 28.5t-20 14.5q-14 0 -19 -14.5t-5 -28.5zM70 598q0 -16 5 -31.5t19 -15.5t19.5 15.5t5.5 31.5q0 14 -5 28.5t-20 14.5q-14 0 -19 -14.5t-5 -28.5z" />
<glyph unicode=";" horiz-adv-x="184" d="M-12 -127l20 -14l148 202l-19 15zM68 598q0 -16 5 -31.5t19 -15.5t19.5 15.5t5.5 31.5q0 14 -5.5 28.5t-19.5 14.5t-19 -14.5t-5 -28.5z" />
<glyph unicode="&#x3c;" horiz-adv-x="317" d="M61 481l154 -307h21l-154 307l154 307h-21z" />
<glyph unicode="=" horiz-adv-x="645" d="M121 348h430v21h-430v-21zM121 573h430v21h-430v-21z" />
<glyph unicode="&#x3e;" horiz-adv-x="317" d="M68 174h20l154 307l-154 307h-20l153 -307z" />
<glyph unicode="?" horiz-adv-x="548" d="M70 45q0 -16 5 -31.5t19 -15.5t19.5 15.5t5.5 31.5q0 14 -5 28.5t-20 14.5q-14 0 -19 -14.5t-5 -28.5zM86 184h20v92q102 23 180.5 71t129.5 112.5t76.5 140.5t25.5 154q0 80 -26.5 156.5t-81 140t-135 108.5t-187.5 62v-21q100 -16 177 -59t127 -103.5t76 -135 t26 -150.5t-26 -150t-76 -135t-127 -106.5t-179 -65.5v-111z" />
<glyph unicode="@" horiz-adv-x="798" d="M88 709q0 -57 19.5 -111.5t58.5 -96.5t97.5 -67.5t135.5 -25.5q72 0 127.5 21.5t81.5 49.5l-12 19q-25 -27 -80 -48.5t-115 -21.5q-72 0 -126 24.5t-89.5 63.5t-54 89.5t-18.5 103.5q0 55 18.5 107t56 94t93 66.5t129.5 24.5q63 0 116.5 -22.5t90 -60t57 -86t20.5 -97.5 q0 -27 -6 -56.5t-19.5 -54t-33 -41t-45.5 -16.5q-41 0 -49.5 29t-8.5 63l15 193h-21l-6 -88q-10 37 -40.5 65.5t-86.5 28.5q-41 0 -71.5 -14.5t-51 -38t-30 -53t-9.5 -60.5q0 -57 35 -101t105 -44q63 0 97 30.5t44 65.5q0 -57 20.5 -76.5t53.5 -19.5t57.5 17.5t40.5 44 t23.5 59t7.5 63.5q0 57 -22.5 110.5t-62.5 93.5t-96.5 63.5t-123.5 23.5q-78 0 -137.5 -26.5t-100.5 -71.5t-62.5 -101.5t-21.5 -113.5zM252 692q0 53 35 99.5t106 46.5q57 0 85 -40t28 -87q0 -53 -33 -98.5t-102 -45.5q-59 0 -89 39t-30 86z" />
<glyph unicode="A" horiz-adv-x="911" d="M31 0h22l94 279h623l96 -279h23l-430 1270l-328 -971h-70v-20h64zM154 299l305 903l305 -903h-610z" />
<glyph unicode="B" horiz-adv-x="614" d="M96 -4q92 0 177 28.5t149.5 87t103.5 144.5t39 203q0 123 -40 210t-103.5 142t-139 82t-145.5 27q23 0 51.5 7t54 24.5t43 45t17.5 68.5q0 84 -55 119t-152 35v-1223zM117 18v883q74 0 150.5 -25.5t138 -80t100.5 -138.5t39 -198q0 -109 -38 -190t-98.5 -136t-137 -84 t-154.5 -31zM117 936v260q68 0 117 -29.5t49 -101.5q0 -59 -47 -94t-119 -35z" />
<glyph unicode="C" horiz-adv-x="602" d="M80 621q0 -115 33.5 -219.5t96 -187.5t149.5 -139.5t194 -72.5v18q-100 18 -183 72.5t-141.5 135.5t-91.5 182.5t-33 210.5q0 106 31 204.5t89.5 177t141.5 131t187 66.5v21q-106 -12 -193.5 -65.5t-150 -135.5t-96 -185t-33.5 -214z" />
<glyph unicode="D" horiz-adv-x="710" d="M92 0q90 6 191.5 37t186.5 101.5t140.5 185t55.5 286.5t-55.5 287t-140.5 185.5t-186.5 101.5t-191.5 37v-1221zM113 20v1180q92 -10 187 -44t172 -103.5t125 -178t48 -264.5q0 -158 -48 -265t-125 -177t-172 -104.5t-187 -43.5z" />
<glyph unicode="E" horiz-adv-x="624" d="M70 977h39v-547q0 -197 112.5 -317.5t333.5 -120.5v20q-207 0 -316.5 117t-109.5 309v539h426v20h-426v201h426v21h-446v-222h-39v-20z" />
<glyph unicode="F" horiz-adv-x="581" d="M70 977h39v-977h20v977h381v20h-381v201h381v21h-401v-222h-39v-20z" />
<glyph unicode="G" horiz-adv-x="718" d="M68 629q0 -166 55 -279.5t139 -187.5t185.5 -112t193.5 -50v1016h-283v-21h263v-968q-78 12 -170.5 47t-173 103.5t-135 179t-54.5 272.5t58.5 270.5t143.5 176t180 99t171 42.5v20q-82 -10 -181.5 -44t-186.5 -104.5t-146 -182t-59 -277.5z" />
<glyph unicode="H" horiz-adv-x="878" d="M74 977h39v-977h20v977h633v-977h20v1219h-20v-222h-633v222h-20v-222h-39v-20z" />
<glyph unicode="I" horiz-adv-x="235" d="M109 0h20v1219h-20v-1219z" />
<glyph unicode="J" horiz-adv-x="577" d="M33 -8q90 0 174 30.5t149.5 89t104.5 141.5t39 189v777h-21v-768q0 -102 -39 -183.5t-102.5 -138.5t-143 -87t-161.5 -30v-20z" />
<glyph unicode="K" horiz-adv-x="733" d="M109 0h20v985l162 86l401 -1071h21l-406 1079l271 140h-41l-408 -213v213h-20v-1219z" />
<glyph unicode="L" horiz-adv-x="616" d="M109 0h458v20h-438v1199h-20v-1219z" />
<glyph unicode="M" horiz-adv-x="1146" d="M29 0h18l311 1190l215 -256l218 258l309 -1192h20l-321 1233l-226 -270l-225 270z" />
<glyph unicode="N" horiz-adv-x="874" d="M92 0h21v1190q94 -8 180 -26.5t166 -47.5t157.5 -70.5t157.5 -99.5v-946h21v1219h-21v-244q-162 115 -326.5 171t-355.5 73v-1219z" />
<glyph unicode="O" horiz-adv-x="1376" d="M59 612q0 -131 49.5 -245.5t134.5 -199.5t199.5 -134t245.5 -49t246 49t200 134t134 199.5t49 245.5t-49 246t-134 200t-200 134t-246 49t-245.5 -49t-199.5 -134t-134.5 -200t-49.5 -246zM80 612q0 125 48 237t130 193.5t192.5 130t237.5 48.5q125 0 236.5 -48.5 t193.5 -130t130 -193.5t48 -237q0 -127 -48 -237.5t-130 -192.5t-193.5 -130t-236.5 -48q-127 0 -237.5 48t-192.5 130t-130 192.5t-48 237.5z" />
<glyph unicode="P" horiz-adv-x="610" d="M113 0h20v377q84 0 159 28.5t132 83t90 132t33 178.5q0 100 -34 178t-93.5 131t-138 82t-168.5 29v-1219zM133 397v801q74 0 144.5 -26.5t126 -78t89 -126t33.5 -168.5t-33.5 -169t-89 -126t-126 -79t-144.5 -28z" />
<glyph unicode="Q" horiz-adv-x="1372" d="M59 612q0 -131 49.5 -245.5t134.5 -199.5t199.5 -134t245.5 -49q92 0 175 24.5t155 69.5l199 -268l16 12l-199 266q129 86 206 222t77 302q0 131 -49 246t-134 200t-200 134t-246 49t-245.5 -49t-199.5 -134t-134.5 -200t-49.5 -246zM80 612q0 125 48 237t130 193.5 t192.5 130t237.5 48.5q125 0 236.5 -48.5t193.5 -130t130 -193.5t48 -237q0 -160 -74.5 -293t-197.5 -215l-217 293l-16 -12l215 -291q-70 -43 -151 -66.5t-167 -23.5q-127 0 -237.5 48t-192.5 130t-130 192.5t-48 237.5z" />
<glyph unicode="R" horiz-adv-x="585" d="M109 0h20v373q55 -135 158.5 -227.5t222.5 -157.5v22q-53 31 -106.5 68t-101.5 83t-89 100t-68 120q70 0 137.5 27.5t122 81t88 130t33.5 175.5q0 106 -36.5 186t-96 133t-134.5 80t-150 27v-1221zM129 401v799q61 0 128 -25.5t122 -76.5t91 -127t36 -176q0 -92 -32 -166 t-84 -124t-119.5 -77t-141.5 -27z" />
<glyph unicode="S" horiz-adv-x="577" d="M68 0v-20q70 0 150.5 22.5t149 68.5t113.5 114.5t45 162.5q0 68 -17 116t-48 84t-72 64.5t-88 57.5q-37 23 -72.5 45t-63.5 51t-44.5 66.5t-16.5 91.5q0 84 32 139t78 89t96 48t85 14v21q-41 0 -94 -15.5t-101 -52.5t-82 -96t-34 -147q0 -59 17.5 -100.5t47 -71t66.5 -52 t76 -47.5q45 -27 84 -53.5t67.5 -61t46 -80.5t17.5 -110q0 -88 -44 -153.5t-109.5 -108.5t-142.5 -64.5t-142 -21.5z" />
<glyph unicode="T" horiz-adv-x="598" d="M78 1198h215v-1198h20v1198h215v21h-450v-21z" />
<glyph unicode="U" horiz-adv-x="753" d="M86 317q0 -154 65.5 -244.5t225.5 -90.5t225.5 91t65.5 244v902h-21v-902q0 -70 -14.5 -127t-47 -99t-83.5 -64.5t-125 -22.5t-125 22.5t-84 64.5t-47.5 99.5t-14.5 126.5v902h-20v-902z" />
<glyph unicode="V" horiz-adv-x="565" d="M31 1219l254 -1272l254 1272h-23l-231 -1168l-232 1168h-22z" />
<glyph unicode="W" horiz-adv-x="1073" d="M37 1219l252 -1270l248 1059l245 -1061l254 1272h-22l-234 -1174l-243 1053l-246 -1047l-232 1168h-22z" />
<glyph unicode="X" horiz-adv-x="688" d="M29 0h20l299 653l297 -653h21l-308 678l248 541h-24l-234 -519l-235 519h-25l248 -541z" />
<glyph unicode="Y" horiz-adv-x="700" d="M35 1219l311 -273v-946h21v946l309 273h-29l-291 -256l-293 256h-28z" />
<glyph unicode="Z" horiz-adv-x="686" d="M49 0h586v20h-555l534 1199h-512v-21h484z" />
<glyph unicode="[" horiz-adv-x="212" d="M68 -195h122v21h-102v1442h102v20h-122v-1483z" />
<glyph unicode="\" horiz-adv-x="348" d="M-10 1286l358 -1433l21 4l-359 1433z" />
<glyph unicode="]" horiz-adv-x="235" d="M49 -174v-21h123v1483h-123v-20h103v-1442h-103z" />
<glyph unicode="^" horiz-adv-x="512" d="M55 801l13 -15l188 168l193 -170l12 15l-205 184z" />
<glyph unicode="_" horiz-adv-x="532" d="M0 -37v-20h549v20h-549z" />
<glyph unicode="`" horiz-adv-x="368" d="M76 1004q0 -15 16 -23q10 -6 35 -28.5t53.5 -51.5t55 -56.5t43.5 -43.5q4 -4 10 -4t6 6t-4 10q-16 16 -42 44t-52.5 57.5t-48 53t-27.5 33.5q-12 20 -27 21q-18 0 -18 -18z" />
<glyph unicode="a" horiz-adv-x="692" d="M74 248q0 -55 19.5 -102.5t55 -82t86 -55t111.5 -20.5q100 0 160.5 45t83.5 96v-129h20v502q0 78 -55 126t-154 48q-70 0 -115.5 -15.5t-78.5 -46.5l12 -16q57 57 182 57q90 0 139.5 -43t49.5 -118v-127q-25 53 -84.5 98t-159.5 45q-63 0 -113.5 -20.5t-86 -55.5t-54 -83 t-18.5 -103zM94 248q0 51 17.5 95t50.5 77t79 51t105 18q113 0 180.5 -67.5t67.5 -173.5q0 -102 -65.5 -171t-182.5 -69q-115 0 -183.5 69t-68.5 171z" />
<glyph unicode="b" horiz-adv-x="839" d="M96 0h21v201q8 -25 29.5 -62t60.5 -70.5t96 -58t139 -24.5t146.5 27.5t109.5 74.5t69 109.5t24 134.5t-24 135t-69 110.5t-109.5 75t-146.5 27.5q-80 0 -137 -23.5t-96 -57.5t-61.5 -72t-30.5 -64v825h-21v-1288zM115 332q0 68 22.5 127t64.5 104t102.5 70.5t137.5 25.5 q76 0 137.5 -25.5t103.5 -70.5t64.5 -104t22.5 -127t-22.5 -127.5t-65.5 -103.5t-103.5 -69.5t-136.5 -25.5t-136 25.5t-103 69.5t-65.5 103.5t-22.5 127.5z" />
<glyph unicode="c" horiz-adv-x="403" d="M70 334q0 -63 18 -119.5t53 -101.5t85 -76t112 -43v20q-117 25 -182.5 113t-65.5 207q0 117 66.5 205.5t181.5 111.5v21q-61 -12 -110.5 -43t-84 -75t-54 -100.5t-19.5 -119.5z" />
<glyph unicode="d" horiz-adv-x="868" d="M84 332q0 -72 23.5 -134.5t68.5 -109.5t109.5 -74.5t146.5 -27.5t139.5 24.5t95.5 58t59.5 70.5t31.5 62v-201h20v1288h-20v-825q-10 27 -31.5 63.5t-60.5 70.5t-96.5 58.5t-137.5 24.5q-82 0 -146.5 -27.5t-109.5 -75t-68.5 -111t-23.5 -134.5zM104 332q0 68 23 127 t64.5 104t102 70.5t138.5 25.5t138.5 -25.5t102.5 -70.5t64.5 -104.5t22.5 -126.5q0 -68 -22.5 -127.5t-65.5 -103.5t-103.5 -69.5t-136.5 -25.5t-136 25.5t-103 69.5t-66 103.5t-23 127.5z" />
<glyph unicode="e" horiz-adv-x="593" d="M43 340q0 -127 64.5 -220t205.5 -128l6 20q-115 23 -179 100.5t-72 163.5l514 355q-80 49 -193 49q-74 0 -137.5 -25.5t-109.5 -71.5t-72.5 -108.5t-26.5 -134.5zM63 340q0 68 25 126t68 101t102 67.5t131 24.5q47 0 86 -9t68 -21l-477 -330l-2 15q-1 14 -1 26z" />
<glyph unicode="f" horiz-adv-x="436" d="M104 645h52v-645h20v645h164v21h-164v430q0 82 36 127t132 45v20q-104 0 -146 -51t-42 -141v-430h-52v-21z" />
<glyph unicode="g" horiz-adv-x="757" d="M66 -442q12 -31 39.5 -65t66.5 -61.5t88 -46t105 -18.5q84 0 151.5 27.5t114.5 75t72.5 113t25.5 138.5q0 66 -21.5 125.5t-60.5 105.5t-92 76.5t-117 39.5q117 16 179.5 99t62.5 195q0 98 -51 176t-137 107h186v21h-289q-70 0 -126 -24t-95 -64.5t-60.5 -96 t-21.5 -119.5q0 -55 17.5 -105t48 -89t75.5 -65.5t101 -34.5q-55 -4 -111.5 -33t-97.5 -76l12 -16q20 20 45 39.5t53.5 36t65.5 26.5t86 10q74 0 134 -26.5t103.5 -71.5t67 -106.5t23.5 -129.5q0 -70 -23.5 -131t-68 -106t-108 -70.5t-144.5 -25.5q-51 0 -97.5 16t-83.5 43 t-62.5 59.5t-37.5 63.5zM106 362q0 57 19.5 109.5t54.5 91.5t86 61.5t117 22.5q63 0 115.5 -22.5t87.5 -61.5t54 -91t19 -110q0 -57 -18 -109t-54 -91t-87 -61.5t-117 -22.5t-117 22.5t-87 61.5t-54.5 91t-18.5 109z" />
<glyph unicode="h" horiz-adv-x="698" d="M106 0h21v457q10 80 69.5 140t170.5 60q109 0 170 -47t61 -159v-451h20v455q0 117 -67 170t-184 53q-55 0 -97.5 -15.5t-71 -38t-47 -49t-24.5 -47.5v760h-21v-1288z" />
<glyph unicode="i" horiz-adv-x="272" d="M119 823q0 -14 3 -29.5t13 -15.5t13.5 15.5t3.5 29.5t-3.5 29.5t-13.5 15.5t-13 -15t-3 -30zM125 0h20v666h-20v-666z" />
<glyph unicode="j" horiz-adv-x="301" d="M0 -653v-21q104 4 146 50t42 143v1147h-20v-1147q0 -86 -38 -129t-130 -43zM162 823q0 -14 3 -29.5t13 -15.5t13.5 15.5t3.5 29.5t-3.5 29.5t-13.5 15.5t-13 -15t-3 -30z" />
<glyph unicode="k" horiz-adv-x="557" d="M109 0h20v238q39 -49 96.5 -101.5t130 -98.5t159.5 -81t187 -49v20q-96 14 -181 49t-156.5 81t-129 98.5t-98.5 101.5l338 410h-26l-320 -389v1009h-20v-1288z" />
<glyph unicode="l" horiz-adv-x="266" d="M125 0h20v1288h-20v-1288z" />
<glyph unicode="m" horiz-adv-x="1183" d="M94 0h21v457q10 80 69.5 140t169.5 60q113 0 171.5 -57t58.5 -149v-451h20v457q0 92 68.5 146t171.5 54q113 0 172 -47t59 -159v-451h21v455q0 117 -66.5 170t-185.5 53q-55 0 -98.5 -14.5t-74 -37t-50 -50t-27.5 -54.5q-4 25 -20.5 51.5t-45 50t-71.5 39t-103 15.5 q-55 0 -97 -15.5t-70.5 -38t-47 -48t-24.5 -48.5v138h-21v-666z" />
<glyph unicode="n" horiz-adv-x="712" d="M106 0h21v457q10 80 69.5 140t170.5 60q113 0 172 -47t59 -159v-451h20v455q0 117 -66 170t-185 53q-55 0 -97.5 -15.5t-71 -38t-47 -48t-24.5 -48.5v138h-21v-666z" />
<glyph unicode="o" horiz-adv-x="817" d="M61 332q0 -76 26 -139.5t72 -109.5t110.5 -71.5t140.5 -25.5t140 25.5t110.5 71.5t72 109.5t25.5 139.5t-25.5 140.5t-72 110.5t-111 71.5t-139.5 25.5q-76 0 -140.5 -25.5t-110.5 -71.5t-72 -110.5t-26 -140.5zM82 332q0 72 24.5 132t67.5 103t103.5 67.5t132.5 24.5 t132 -24.5t103 -67.5t67.5 -103.5t24.5 -131.5q0 -72 -24.5 -132.5t-67.5 -103.5t-103.5 -66.5t-131.5 -23.5q-72 0 -132.5 23.5t-103.5 66.5t-67.5 103.5t-24.5 132.5z" />
<glyph unicode="p" horiz-adv-x="854" d="M109 -623h20v824q8 -27 30.5 -64t61.5 -70.5t96.5 -58t137.5 -24.5q82 0 146.5 27.5t109.5 74.5t68.5 110.5t23.5 135.5q0 70 -23.5 133t-68.5 110.5t-109.5 75t-146.5 27.5t-139.5 -24.5t-96.5 -58.5t-60.5 -71t-29.5 -61v203h-20v-1289zM127 332q0 68 22.5 127 t65.5 103t103.5 69.5t136.5 25.5t136 -25.5t103 -69.5t65.5 -103.5t22.5 -126.5q0 -68 -22.5 -127.5t-64.5 -104.5t-103 -70.5t-137 -25.5q-78 0 -138.5 25.5t-102.5 70.5t-64.5 104.5t-22.5 127.5z" />
<glyph unicode="q" horiz-adv-x="868" d="M82 332q0 -72 23.5 -135.5t68.5 -110.5t109.5 -74.5t146.5 -27.5q80 0 137.5 24.5t96 58t60 70.5t32.5 64v-824h20v1289h-20v-203q-10 25 -32 61.5t-59.5 70.5t-95 58.5t-139.5 24.5t-146.5 -27.5t-109.5 -75t-68.5 -111t-23.5 -132.5zM102 332q0 68 22.5 127t65.5 103 t103.5 69.5t136.5 25.5t136.5 -25.5t103.5 -69.5t65.5 -103.5t22.5 -126.5q0 -68 -22.5 -127.5t-64.5 -104.5t-102.5 -70.5t-138.5 -25.5t-138.5 25.5t-102.5 70.5t-64.5 104.5t-22.5 127.5z" />
<glyph unicode="r" horiz-adv-x="442" d="M121 4h20v467q0 12 10.5 42t37 58.5t73.5 51t119 22.5v21q-100 0 -158.5 -40t-81.5 -87v127h-20v-662z" />
<glyph unicode="s" horiz-adv-x="387" d="M86 2v-20q47 8 90 23t77 41t53.5 61.5t19.5 82.5q0 68 -35 106t-74 71t-70.5 62.5t-31.5 76.5q0 39 12 64.5t30.5 42t43 23.5t49.5 11v21q-29 -4 -56.5 -13.5t-49 -28t-36 -48t-14.5 -72.5q0 -53 36 -87t77 -67q41 -35 69.5 -71.5t28.5 -90.5q0 -82 -64.5 -128 t-154.5 -60z" />
<glyph unicode="t" horiz-adv-x="409" d="M82 645h51v-461q0 -96 42 -144t147 -48v20q-94 0 -131 43t-37 129v461h163v21h-163v249h-21v-249h-51v-21z" />
<glyph unicode="u" horiz-adv-x="712" d="M111 213q0 -123 69.5 -177t177.5 -54q109 0 178.5 54t69.5 177v453h-20v-453q0 -57 -17.5 -97t-48.5 -65.5t-72.5 -37t-89.5 -11.5q-96 0 -161.5 48t-65.5 163v453h-20v-453z" />
<glyph unicode="v" horiz-adv-x="577" d="M43 666l250 -707l250 707h-21l-229 -646l-227 646h-23z" />
<glyph unicode="w" horiz-adv-x="884" d="M33 666l248 -707l163 451l164 -451l250 707h-22l-228 -646l-164 451l-163 -451l-226 646h-22z" />
<glyph unicode="x" horiz-adv-x="626" d="M23 0h26l264 338l265 -338h28l-278 352l243 314h-24l-232 -297l-231 297h-25l240 -312z" />
<glyph unicode="y" horiz-adv-x="585" d="M45 666l240 -682l-232 -664h19l473 1346h-23l-227 -652l-227 652h-23z" />
<glyph unicode="z" horiz-adv-x="628" d="M47 0h528v20h-483l465 646h-461v-21h416z" />
<glyph unicode="{" horiz-adv-x="399" d="M53 569q49 -16 87 -46.5t38 -84.5v-481q0 -61 33 -112.5t125 -61.5v20q-82 10 -109.5 60.5t-27.5 116.5v462q0 59 -32 86t-67 41q35 14 67 42t32 81v430q0 68 29.5 116t107.5 58v21q-43 -4 -74 -20.5t-49 -41t-26.5 -53t-8.5 -59.5v-443q0 -53 -38 -83.5t-87 -47.5z" />
<glyph unicode="|" horiz-adv-x="184" d="M82 -154h24v1424h-24v-1424z" />
<glyph unicode="}" horiz-adv-x="399" d="M74 -197v-20q92 10 124.5 61.5t32.5 112.5v481q0 53 38 84t87 47q-49 16 -87 47t-38 84v443q0 31 -8 59.5t-26.5 53t-49 41t-73.5 20.5v-21q78 -10 107.5 -58t29.5 -116v-430q0 -53 31.5 -81t66.5 -42q-35 -14 -66.5 -40.5t-31.5 -86.5v-462q0 -66 -27.5 -116t-109.5 -61 z" />
<glyph unicode="~" horiz-adv-x="655" d="M129 528h21q0 29 25.5 51.5t66.5 22.5q31 0 47 -10t30 -25q18 -16 39 -28.5t68 -12.5q45 0 73.5 24.5t28.5 70.5h-20q0 -33 -18.5 -53.5t-63.5 -20.5q-35 0 -54.5 10t-35.5 25q-16 16 -35.5 28.5t-58.5 12.5q-51 0 -82 -30t-31 -65z" />
<glyph unicode="&#xa0;" />
<glyph unicode="&#xa1;" horiz-adv-x="174" d="M66 866q0 -14 5 -28.5t19 -14.5t19.5 14.5t5.5 28.5q0 16 -5.5 31.5t-19.5 15.5t-19 -15.5t-5 -31.5zM78 -307h24v1034h-24v-1034z" />
<glyph unicode="&#xa2;" horiz-adv-x="757" d="M70 621q0 -80 21.5 -155t64.5 -132.5t105.5 -92t141.5 -34.5v-115h21v115q84 0 144.5 26.5t97.5 61.5v24q-41 -41 -102.5 -66.5t-139.5 -25.5v781q72 0 133 -27t109 -63v24q-47 35 -106.5 60.5t-135.5 25.5v98h-21v-98q-80 0 -142 -35t-105 -92t-64.5 -130.5 t-21.5 -149.5zM90 621q0 74 19.5 143.5t59.5 123.5t98.5 87t135.5 33v-781q-74 0 -131 34t-98 89.5t-62.5 126t-21.5 144.5z" />
<glyph unicode="&#xa3;" horiz-adv-x="581" d="M23 272h38v-272h447v20h-426v252h334v21h-334v113h334v20h-334v408q0 90 36 159.5t95 116.5t136 71.5t159 24.5v21q-86 0 -167 -26.5t-143.5 -76t-99.5 -121t-37 -161.5v-416h-38v-20h38v-113h-38v-21z" />
<glyph unicode="&#xa5;" horiz-adv-x="704" d="M37 1219l311 -273v-147h-153v-21h153v-55h-153v-21h153v-706h21v706h153v21h-153v55h153v21h-153v147l311 273h-29l-293 -252l-292 252h-29z" />
<glyph unicode="&#xa6;" horiz-adv-x="272" d="M111 0h71v670h-71v-670zM111 893h71v653h-71v-653z" />
<glyph unicode="&#xa7;" horiz-adv-x="387" d="M76 2v-20q43 6 86 21t76.5 41t55 61.5t21.5 84.5q0 72 -37.5 121t-76.5 95q14 8 33.5 22t38 36.5t30.5 57.5t12 86q0 59 -22.5 100.5t-69.5 88.5q-43 41 -81 79.5t-38 90.5q0 74 42 105.5t94 35.5v20q-59 -4 -107.5 -40.5t-48.5 -120.5q0 -29 12.5 -54.5t29.5 -47 t37.5 -40t39.5 -37.5q-49 -25 -84 -79t-35 -121q0 -61 27.5 -101.5t70.5 -89.5q45 -51 79 -98t34 -109q0 -45 -19.5 -77.5t-51 -55t-70.5 -36t-78 -19.5zM104 588q0 57 28 107t87 79q76 -66 76 -166q0 -47 -11.5 -78.5t-26.5 -53t-34.5 -35t-34.5 -21.5q-25 29 -54.5 70.5 t-29.5 97.5z" />
<glyph unicode="&#xa8;" horiz-adv-x="481" d="M119 823q0 -14 3 -29.5t13 -15.5t13.5 15.5t3.5 29.5t-3.5 29.5t-13.5 15.5t-13 -15t-3 -30zM324 823q0 -14 3 -29.5t13 -15.5t13 15.5t3 29.5t-3 29.5t-13 15.5t-13 -15t-3 -30z" />
<glyph unicode="&#xa9;" horiz-adv-x="737" d="M47 649q0 -68 25.5 -126t69.5 -102t102.5 -69.5t126.5 -25.5t126 25.5t102 69.5t69.5 102t25.5 126t-25.5 126.5t-69.5 102.5t-102.5 69.5t-125.5 25.5q-68 0 -126.5 -25.5t-102.5 -69.5t-69.5 -102.5t-25.5 -126.5zM68 651q0 63 23.5 118.5t64.5 96.5t96 64.5t121 23.5 q63 0 118.5 -23.5t96.5 -64.5t64.5 -96t23.5 -119q0 -66 -23.5 -121t-64.5 -96t-96.5 -64.5t-118.5 -23.5q-66 0 -121 23.5t-96 64.5t-64.5 96t-23.5 121zM211 655q0 -55 40 -102t120 -47q47 0 73.5 15.5t42.5 31.5v31q-16 -23 -41.5 -40.5t-72.5 -17.5q-70 0 -106 41 t-36 88t36 87t104 40q39 0 67.5 -16t48.5 -39v29q-18 18 -44.5 32.5t-71.5 14.5q-80 0 -120 -46t-40 -102z" />
<glyph unicode="&#xaa;" horiz-adv-x="460" d="M76 655h358v19h-358v-19zM88 901q0 -59 41 -101t109 -42q55 0 88.5 24.5t44.5 53.5v-72h12v276q0 43 -30.5 70t-84.5 27q-71 0 -106 -35l6 -8q31 31 100 30q102 0 103 -88v-69q-14 29 -46 53t-87 24q-70 0 -110 -41.5t-40 -101.5zM98 901q0 55 37 94t103 39 q61 0 98 -36.5t37 -96.5q0 -57 -35 -95t-100 -38q-63 0 -101.5 38t-38.5 95z" />
<glyph unicode="&#xab;" horiz-adv-x="409" d="M49 379l154 -307h20l-153 307l153 307h-20zM164 379l153 -307h21l-154 307l154 307h-21z" />
<glyph unicode="&#xad;" d="M80 471h430v21h-430v-21z" />
<glyph unicode="&#xae;" horiz-adv-x="688" d="M57 993q0 -61 21.5 -112.5t58.5 -88t89.5 -57t113.5 -20.5t113.5 21.5t89.5 59.5t58.5 88t21.5 107q0 61 -21.5 112.5t-58.5 87.5t-89.5 56.5t-113.5 20.5t-113.5 -20.5t-89.5 -56.5t-58.5 -86.5t-21.5 -111.5zM78 991q0 55 20.5 101.5t55 80t83 53t103.5 19.5 t103.5 -19.5t83 -53t55 -79.5t20.5 -102q0 -55 -20.5 -102t-55 -81t-83 -52.5t-103.5 -18.5t-103.5 18.5t-83 52.5t-55 81t-20.5 102zM248 844h20v139h21l129 -139h26l-129 139h47q37 0 58.5 23.5t21.5 54.5q0 33 -21.5 56.5t-58.5 23.5h-114v-297zM268 1006v114h94 q27 0 42.5 -17t15.5 -42q0 -23 -14.5 -39t-43.5 -16h-94z" />
<glyph unicode="&#xaf;" horiz-adv-x="460" d="M86 803h338v20h-338v-20z" />
<glyph unicode="&#xb0;" horiz-adv-x="425" d="M113 1071q0 -41 29.5 -69.5t70.5 -28.5t70.5 28.5t29.5 69.5t-29.5 70.5t-70.5 29.5t-70.5 -29.5t-29.5 -70.5zM133 1071q0 33 23.5 56.5t56.5 23.5t56.5 -23.5t23.5 -56.5t-23.5 -55.5t-56.5 -22.5t-56.5 22.5t-23.5 55.5z" />
<glyph unicode="&#xb2;" horiz-adv-x="354" d="M39 666h285v12h-261l205 278q49 66 49 129q0 59 -42 97.5t-99 38.5q-76 -1 -125 -54l10 -8q45 49 115 49q53 0 91 -33.5t38 -89.5q0 -29 -12 -60.5t-33 -59.5z" />
<glyph unicode="&#xb3;" horiz-adv-x="354" d="M74 684q51 0 100 16.5t87 47t60.5 72.5t22.5 93q0 88 -53 141.5t-119 65.5l111 111h-205v-12h178l-102 -103q76 -14 127 -65.5t51 -137.5q0 -49 -22.5 -89t-59.5 -68.5t-83 -44t-93 -15.5v-12z" />
<glyph unicode="&#xb4;" horiz-adv-x="419" d="M111 803q0 -6 6 -6t10 4q14 16 42 43.5t56.5 56.5t53 51.5t34.5 28.5q16 8 17 23q0 18 -19 18q-14 0 -26 -21q-6 -10 -27.5 -33.5t-48.5 -53t-53.5 -57.5t-40.5 -44q-4 -4 -4 -10z" />
<glyph unicode="&#xb6;" horiz-adv-x="665" d="M66 799q0 -115 43 -196t106.5 -131t135 -72.5t128.5 -22.5v-582h21v1426q-74 0 -151 -23.5t-139.5 -75t-103 -131t-40.5 -192.5zM86 799q0 104 38 179t96.5 124t128 72.5t130.5 23.5v-799q-49 0 -116.5 21.5t-129 69t-104.5 123t-43 186.5zM573 -205h21v1424h-21v-1424z " />
<glyph unicode="&#xb7;" horiz-adv-x="282" d="M121 565q0 -16 6 -34.5t23 -18.5q16 0 22 18.5t6 34.5t-6 33.5t-22 17.5t-22.5 -17t-6.5 -34z" />
<glyph unicode="&#xb8;" horiz-adv-x="276" d="M111 -283l18 -12q37 45 51.5 96.5t14.5 104.5q0 33 -4.5 62.5t-10.5 56.5h-20q12 -49 12 -111q0 -51 -13.5 -102.5t-47.5 -94.5z" />
<glyph unicode="&#xb9;" horiz-adv-x="354" d="M123 1128h16l76 76v-518h12v547z" />
<glyph unicode="&#xba;" horiz-adv-x="507" d="M63 946q0 -84 54.5 -137t138.5 -53t137 53t53 137q0 86 -53 139.5t-137 53.5t-138.5 -53.5t-54.5 -139.5zM76 946q0 80 50 131t130 51t130 -51t50 -131q0 -78 -50 -128t-130 -50t-130 50t-50 128zM78 655h358v19h-358v-19z" />
<glyph unicode="&#xbb;" horiz-adv-x="409" d="M96 72h21l153 307l-153 307h-21l154 -307zM203 72h20l154 307l-154 307h-20l153 -307z" />
<glyph unicode="&#xbc;" horiz-adv-x="354" d="M16 158h263v-158h12v158h43v12h-43v184h-12v-184h-242l203 379h-13zM43 623h266v12h-266v-12zM123 1128h16l76 76v-518h12v547z" />
<glyph unicode="&#xbd;" horiz-adv-x="354" d="M39 0h285v12h-261l205 279q49 66 49 129q0 59 -42 97t-99 38q-76 0 -125 -53l10 -8q45 49 115 49q53 0 91 -34t38 -89q0 -29 -12 -60.5t-33 -60.5zM43 623h266v12h-266v-12zM123 1128h16l76 76v-518h12v547z" />
<glyph unicode="&#xbe;" horiz-adv-x="354" d="M16 158h263v-158h12v158h43v12h-43v184h-12v-184h-242l203 379h-13zM43 623h266v12h-266v-12zM74 684q51 0 100 16.5t87 47t60.5 72.5t22.5 93q0 88 -53 141.5t-119 65.5l111 111h-205v-12h178l-102 -103q76 -14 127 -65.5t51 -137.5q0 -49 -22.5 -89t-59.5 -68.5 t-83 -44t-93 -15.5v-12z" />
<glyph unicode="&#xbf;" horiz-adv-x="548" d="M43 158q0 -80 26.5 -157t81 -140.5t134.5 -108.5t188 -61v20q-102 14 -178 58.5t-126 104.5t-75.5 134t-25.5 152q0 76 24.5 148.5t75.5 134t128 107.5t179 66v111h-20v-92q-102 -23 -180 -71t-129.5 -112.5t-77 -140t-25.5 -153.5zM442 866q0 -14 5.5 -28.5t19.5 -14.5 t19.5 14.5t5.5 28.5q0 16 -5.5 31.5t-19.5 15.5t-19.5 -15.5t-5.5 -31.5z" />
<glyph unicode="&#xc0;" horiz-adv-x="901" d="M31 0h22l94 279h623l96 -279h23l-430 1270l-328 -971h-70v-20h64zM154 299l305 903l305 -903h-610zM315 1464q1 -14 13 -18q8 -4 27.5 -22.5t43 -41t45 -45t33.5 -34.5q4 -4 8 -5q4 0 4 5q0 4 -1 6l-1 2q-12 12 -33.5 34.5t-43 46t-39 43t-21.5 27.5q-8 16 -20 17 q-14 0 -15 -15z" />
<glyph unicode="&#xc1;" horiz-adv-x="864" d="M31 0h22l94 279h623l96 -279h23l-430 1270l-328 -971h-70v-20h64zM154 299l305 903l305 -903h-610zM399 1290q0 -4 4 -4t9 4q12 12 33.5 35t45 45.5t43 41t27.5 22.5q12 4 12 18t-14 14q-12 0 -20 -16q-4 -8 -21.5 -27.5t-39 -43t-43 -46t-34.5 -35.5l-1 -2t-1 -6z" />
<glyph unicode="&#xc2;" horiz-adv-x="901" d="M31 0h22l94 279h623l96 -279h23l-430 1270l-328 -971h-70v-20h64zM154 299l305 903l305 -903h-610zM260 1364l12 -14l193 96l192 -96l13 14l-205 102z" />
<glyph unicode="&#xc3;" horiz-adv-x="901" d="M31 0h22l94 279h623l96 -279h23l-430 1270l-328 -971h-70v-20h64zM154 299l305 903l305 -903h-610zM256 1278h20q0 29 26 51.5t67 22.5q31 0 47 -10.5t30 -24.5q18 -16 39 -28.5t68 -12.5q45 0 73.5 24.5t28.5 69.5h-20q0 -33 -18.5 -53.5t-63.5 -20.5q-35 0 -54.5 10.5 t-35.5 24.5q-16 16 -35.5 28.5t-58.5 12.5q-51 0 -82 -29.5t-31 -64.5z" />
<glyph unicode="&#xc4;" horiz-adv-x="901" d="M31 0h22l94 279h623l96 -279h23l-430 1270l-328 -971h-70v-20h64zM154 299l305 903l305 -903h-610zM340 1327q0 -14 3 -29.5t13 -15.5t13.5 15.5t3.5 29.5t-3 29.5t-14 15.5q-10 0 -13 -15.5t-3 -29.5zM545 1327q0 -14 3 -29.5t13 -15.5t13.5 15.5t3.5 29.5t-3.5 29.5 t-13.5 15.5t-13 -15.5t-3 -29.5z" />
<glyph unicode="&#xc5;" horiz-adv-x="901" d="M31 0h22l94 279h623l96 -279h23l-430 1270l-328 -971h-70v-20h64zM154 299l305 903l305 -903h-610zM377 1368q0 -35 22.5 -56.5t57.5 -21.5t57.5 21.5t22.5 56.5t-22.5 57.5t-57.5 22.5t-57.5 -22.5t-22.5 -57.5zM393 1368q0 27 18.5 45.5t45.5 18.5t45 -18.5t18 -45.5 t-18 -44t-45 -17t-45.5 17t-18.5 44z" />
<glyph unicode="&#xc6;" horiz-adv-x="1163" d="M25 0h24l492 977h104v-617q0 -74 32 -140t90 -116.5t140 -81t185 -30.5v20q-96 0 -175 29t-134.5 78t-86 113.5t-30.5 136.5v608h426v20h-426v201h426v21h-455zM549 997l96 201v-201h-96z" />
<glyph unicode="&#xc7;" horiz-adv-x="602" d="M80 621q0 -174 76.5 -321.5t210.5 -229.5q4 -23 8 -52.5t4 -62.5q0 -49 -12.5 -105.5t-47.5 -105.5l19 -12q39 51 51 110.5t12 112.5q0 27 -3 50.5t-7 49.5q37 -18 78 -32.5t84 -20.5v18q-100 18 -183 72.5t-141.5 135.5t-91.5 182.5t-33 210.5q0 106 31 204.5t89.5 177 t141.5 131t187 66.5v21q-106 -12 -193.5 -65.5t-150 -135.5t-96 -185t-33.5 -214z" />
<glyph unicode="&#xc8;" horiz-adv-x="624" d="M70 977h39v-547q0 -197 112.5 -317.5t333.5 -120.5v20q-207 0 -316.5 117t-109.5 309v539h426v20h-426v201h426v21h-446v-222h-39v-20zM195 1452q0 -14 12 -18q8 -4 27.5 -22.5t43 -41t45 -45t33.5 -35.5q4 -4 9 -4q4 0 4 4t-1 6l-1 2q-12 12 -34 35t-43.5 46.5t-39 43 t-21.5 27.5q-8 16 -20 16q-14 0 -14 -14z" />
<glyph unicode="&#xc9;" horiz-adv-x="624" d="M70 977h39v-547q0 -197 112.5 -317.5t333.5 -120.5v20q-207 0 -316.5 117t-109.5 309v539h426v20h-426v201h426v21h-446v-222h-39v-20zM305 1290q0 -4 4 -4t8 4q12 12 34 35t45.5 45.5t43 41t27.5 22.5q12 4 12 18t-14 14q-12 0 -21 -16q-4 -8 -21 -27.5t-39 -43 t-43.5 -46t-33.5 -35.5l-1 -2t-1 -6z" />
<glyph unicode="&#xca;" horiz-adv-x="624" d="M70 977h39v-547q0 -197 112.5 -317.5t333.5 -120.5v20q-207 0 -316.5 117t-109.5 309v539h426v20h-426v201h426v21h-446v-222h-39v-20zM137 1366l8 -16l193 96l197 -98l8 16l-205 102z" />
<glyph unicode="&#xcb;" horiz-adv-x="624" d="M70 977h39v-547q0 -197 112.5 -317.5t333.5 -120.5v20q-207 0 -316.5 117t-109.5 309v539h426v20h-426v201h426v21h-446v-222h-39v-20zM221 1327q0 -14 3 -29.5t14 -15.5q10 0 13 15.5t3 29.5t-3 29.5t-13 15.5t-13.5 -15.5t-3.5 -29.5zM426 1327q0 -14 3 -29.5t13 -15.5 t13.5 15.5t3.5 29.5t-3 29.5t-14 15.5q-10 0 -13 -15.5t-3 -29.5z" />
<glyph unicode="&#xcc;" horiz-adv-x="245" d="M-29 1452q1 -14 13 -18q8 -4 27.5 -22.5t43 -41t45 -45t33.5 -35.5q4 -4 8 -4t4 4t-1 6l-1 2q-12 12 -33.5 35t-43 46.5t-39 43t-21.5 27.5q-8 16 -20 16q-14 0 -15 -14zM109 0h20v1219h-20v-1219z" />
<glyph unicode="&#xcd;" horiz-adv-x="245" d="M82 1290q0 -4 4 -4t8 4q12 12 34 35t45.5 45.5t43 41t27.5 22.5q12 4 12 18t-14 14q-12 0 -21 -16q-4 -8 -21.5 -27.5t-39 -43t-43 -46t-33.5 -35.5l-1 -2t-1 -6zM109 0h20v1219h-20v-1219z" />
<glyph unicode="&#xce;" horiz-adv-x="245" d="M-80 1366l8 -16l193 96l196 -98l9 16l-205 102zM109 0h20v1219h-20v-1219z" />
<glyph unicode="&#xcf;" horiz-adv-x="245" d="M4 1327q0 -14 3 -29.5t13 -15.5t13.5 15.5t3.5 29.5t-3 29.5t-14 15.5q-10 0 -13 -15.5t-3 -29.5zM109 0h20v1219h-20v-1219zM209 1327q0 -14 3 -29.5t13 -15.5t13.5 15.5t3.5 29.5t-3 29.5t-14 15.5q-10 0 -13 -15.5t-3 -29.5z" />
<glyph unicode="&#xd0;" horiz-adv-x="710" d="M18 602h74v-602q90 6 191.5 37t186.5 101.5t140.5 185t55.5 286.5t-55.5 287t-140.5 185.5t-186.5 101t-191.5 37.5v-598h-74v-21zM113 20v582h266v21h-266v577q92 -10 187 -44t172 -103.5t125 -178t48 -264.5q0 -158 -48 -265t-125 -177t-172 -104.5t-187 -43.5z" />
<glyph unicode="&#xd1;" horiz-adv-x="870" d="M92 0h21v1190q94 -8 180 -26.5t166 -47.5t157.5 -70.5t157.5 -99.5v-946h21v1219h-21v-244q-162 115 -326.5 171t-355.5 73v-1219zM256 1266h20q0 29 26 51t67 22q31 0 47 -10t30 -24q18 -16 39 -28.5t68 -12.5q45 0 73.5 24.5t28.5 69.5h-20q0 -33 -18.5 -53.5 t-63.5 -20.5q-35 0 -54.5 10.5t-35.5 24.5q-16 16 -35.5 28.5t-58.5 12.5q-51 0 -82 -29.5t-31 -64.5z" />
<glyph unicode="&#xd2;" horiz-adv-x="1361" d="M59 612q0 -131 49.5 -245.5t134.5 -199.5t199.5 -134t245.5 -49t246 49t200 134t134 199.5t49 245.5t-49 246t-134 200t-200 134t-246 49t-245.5 -49t-199.5 -134t-134.5 -200t-49.5 -246zM80 612q0 125 48 237t130 193.5t192.5 130t237.5 48.5q125 0 236.5 -48.5 t193.5 -130t130 -193.5t48 -237q0 -127 -48 -237.5t-130 -192.5t-193.5 -130t-236.5 -48q-127 0 -237.5 48t-192.5 130t-130 192.5t-48 237.5zM541 1452q0 -14 12 -18q8 -4 27.5 -22.5t43 -41t45 -45t33.5 -35.5q4 -4 9 -4q4 0 4 4t-1 6l-1 2q-12 12 -34 35t-43.5 46.5 t-38.5 43t-22 27.5q-8 16 -20 16q-14 0 -14 -14z" />
<glyph unicode="&#xd3;" horiz-adv-x="1361" d="M59 612q0 -131 49.5 -245.5t134.5 -199.5t199.5 -134t245.5 -49t246 49t200 134t134 199.5t49 245.5t-49 246t-134 200t-200 134t-246 49t-245.5 -49t-199.5 -134t-134.5 -200t-49.5 -246zM80 612q0 125 48 237t130 193.5t192.5 130t237.5 48.5q125 0 236.5 -48.5 t193.5 -130t130 -193.5t48 -237q0 -127 -48 -237.5t-130 -192.5t-193.5 -130t-236.5 -48q-127 0 -237.5 48t-192.5 130t-130 192.5t-48 237.5zM686 1290q0 -4 4 -4t8 4q12 12 34 35t45.5 45.5t43 41t27.5 22.5q12 4 12 18t-14 14q-12 0 -21 -16q-4 -8 -21.5 -27.5t-39 -43 t-43 -46t-33.5 -35.5l-1 -2t-1 -6z" />
<glyph unicode="&#xd4;" horiz-adv-x="1361" d="M59 612q0 -131 49.5 -245.5t134.5 -199.5t199.5 -134t245.5 -49t246 49t200 134t134 199.5t49 245.5t-49 246t-134 200t-200 134t-246 49t-245.5 -49t-199.5 -134t-134.5 -200t-49.5 -246zM80 612q0 125 48 237t130 193.5t192.5 130t237.5 48.5q125 0 236.5 -48.5 t193.5 -130t130 -193.5t48 -237q0 -127 -48 -237.5t-130 -192.5t-193.5 -130t-236.5 -48q-127 0 -237.5 48t-192.5 130t-130 192.5t-48 237.5zM494 1366l8 -16l192 96l197 -98l8 16l-205 102z" />
<glyph unicode="&#xd5;" horiz-adv-x="1376" d="M59 612q0 -131 49.5 -245.5t134.5 -199.5t199.5 -134t245.5 -49t246 49t200 134t134 199.5t49 245.5t-49 246t-134 200t-200 134t-246 49t-245.5 -49t-199.5 -134t-134.5 -200t-49.5 -246zM80 612q0 125 48 237t130 193.5t192.5 130t237.5 48.5q125 0 236.5 -48.5 t193.5 -130t130 -193.5t48 -237q0 -127 -48 -237.5t-130 -192.5t-193.5 -130t-236.5 -48q-127 0 -237.5 48t-192.5 130t-130 192.5t-48 237.5zM485 1286h21q0 29 25.5 51.5t66.5 22.5q31 0 47.5 -10.5t30.5 -24.5q18 -16 38.5 -28.5t67.5 -12.5q45 0 74 24.5t29 69.5h-21 q0 -33 -18.5 -53t-63.5 -20q-35 0 -54 10t-36 24q-16 16 -35.5 28.5t-58.5 12.5q-51 0 -82 -29.5t-31 -64.5z" />
<glyph unicode="&#xd6;" horiz-adv-x="1361" d="M59 612q0 -131 49.5 -245.5t134.5 -199.5t199.5 -134t245.5 -49t246 49t200 134t134 199.5t49 245.5t-49 246t-134 200t-200 134t-246 49t-245.5 -49t-199.5 -134t-134.5 -200t-49.5 -246zM80 612q0 125 48 237t130 193.5t192.5 130t237.5 48.5q125 0 236.5 -48.5 t193.5 -130t130 -193.5t48 -237q0 -127 -48 -237.5t-130 -192.5t-193.5 -130t-236.5 -48q-127 0 -237.5 48t-192.5 130t-130 192.5t-48 237.5zM561 1327q0 -14 3 -29.5t14 -15.5q10 0 13 15.5t3 29.5t-3 29.5t-13 15.5t-13.5 -15.5t-3.5 -29.5zM766 1327q0 -14 3 -29.5 t13 -15.5t13.5 15.5t3.5 29.5t-3 29.5t-14 15.5q-10 0 -13 -15.5t-3 -29.5z" />
<glyph unicode="&#xd7;" horiz-adv-x="739" d="M66 47l67 -47l240 354l239 -354l70 43l-258 385l252 375l-70 43l-233 -350l-236 350l-67 -45l252 -375z" />
<glyph unicode="&#xd8;" horiz-adv-x="1376" d="M59 612q0 -92 26 -177t71 -157.5t108.5 -131t141.5 -97.5l-41 -104h22l39 96q125 -57 262 -57q131 0 246 49t200 134t134 199.5t49 245.5q0 104 -32 198.5t-87 171.5t-132 135.5t-169 88.5l31 78h-23l-28 -72q-96 29 -189 29q-131 0 -245.5 -49t-199.5 -134t-134.5 -200 t-49.5 -246zM80 612q0 125 48 237t130 193.5t192.5 130t237.5 48.5q94 0 180 -29l-454 -1122q-74 37 -135.5 93t-105.5 126.5t-68.5 152.5t-24.5 170zM434 59l455 1129q94 -39 170 -98.5t128 -133t80.5 -161.5t28.5 -183q0 -127 -48 -237.5t-130 -192.5t-193.5 -130 t-236.5 -48q-70 0 -132.5 14t-121.5 41z" />
<glyph unicode="&#xd9;" horiz-adv-x="747" d="M86 317q0 -154 65.5 -244.5t225.5 -90.5t225.5 91t65.5 244v902h-21v-902q0 -70 -14.5 -127t-47 -99t-83.5 -64.5t-125 -22.5t-125 22.5t-84 64.5t-47.5 99.5t-14.5 126.5v902h-20v-902zM219 1452q0 -14 12 -18q8 -4 28 -22.5t43.5 -41t45 -45t33.5 -35.5q4 -4 8 -4t4 4 t-1 6l-1 2q-12 12 -33.5 35t-43 46.5t-39 43t-21.5 27.5q-8 16 -21 16q-14 0 -14 -14z" />
<glyph unicode="&#xda;" horiz-adv-x="737" d="M86 317q0 -154 65.5 -244.5t225.5 -90.5t225.5 91t65.5 244v902h-21v-902q0 -70 -14.5 -127t-47 -99t-83.5 -64.5t-125 -22.5t-125 22.5t-84 64.5t-47.5 99.5t-14.5 126.5v902h-20v-902zM346 1290q0 -4 4 -4t8 4q12 12 34 35t45.5 45.5t43 41t27.5 22.5q12 4 12 18 t-14 14q-12 0 -21 -16q-4 -8 -21.5 -27.5t-39 -43t-43 -46t-33.5 -35.5l-1 -2t-1 -6z" />
<glyph unicode="&#xdb;" horiz-adv-x="737" d="M86 317q0 -154 65.5 -244.5t225.5 -90.5t225.5 91t65.5 244v902h-21v-902q0 -70 -14.5 -127t-47 -99t-83.5 -64.5t-125 -22.5t-125 22.5t-84 64.5t-47.5 99.5t-14.5 126.5v902h-20v-902zM170 1366l8 -16l193 96l196 -98l8 16l-204 102z" />
<glyph unicode="&#xdc;" horiz-adv-x="747" d="M86 317q0 -154 65.5 -244.5t225.5 -90.5t225.5 91t65.5 244v902h-21v-902q0 -70 -14.5 -127t-47 -99t-83.5 -64.5t-125 -22.5t-125 22.5t-84 64.5t-47.5 99.5t-14.5 126.5v902h-20v-902zM258 1327q0 -14 3 -29.5t13 -15.5t13.5 15.5t3.5 29.5t-3 29.5t-14 15.5 q-10 0 -13 -15.5t-3 -29.5zM463 1327q0 -14 3 -29.5t13 -15.5t13.5 15.5t3.5 29.5t-3.5 29.5t-13.5 15.5t-13 -15.5t-3 -29.5z" />
<glyph unicode="&#xdd;" horiz-adv-x="700" d="M35 1219l311 -273v-946h21v946l309 273h-29l-291 -256l-293 256h-28zM305 1290q0 -4 4 -4t8 4q12 12 34 35t45.5 45.5t43 41t27.5 22.5q12 4 12 18t-14 14q-12 0 -21 -16q-4 -8 -21 -27.5t-39 -43t-43.5 -46t-33.5 -35.5l-1 -2t-1 -6z" />
<glyph unicode="&#xde;" horiz-adv-x="610" d="M113 0h20v219q84 0 159 28.5t132 83t90 132.5t33 178q0 96 -33 174t-88 132t-131 84t-162 30v158h-20v-1219zM133 240v800q74 0 144.5 -26.5t126 -77.5t89 -126t33.5 -169t-33.5 -169t-89 -126t-126 -78.5t-144.5 -27.5z" />
<glyph unicode="&#xdf;" horiz-adv-x="782" d="M47 653h51v-653h21v956q0 53 18.5 99.5t51 80t79.5 53t103 19.5q68 0 119 -20.5t85.5 -56t52 -80.5t17.5 -95q0 -47 -12 -95t-41 -88t-80 -67.5t-127 -29.5v-21q150 0 239 -84t89 -223q0 -66 -20.5 -125t-60.5 -104t-99.5 -72t-139.5 -27v-20q84 0 147.5 26.5t106.5 72.5 t64.5 109.5t21.5 139.5q0 74 -25.5 132.5t-65.5 98t-92 62.5t-104 27q41 4 81 24.5t71 56t49.5 88t18.5 119.5q0 55 -19.5 104.5t-57.5 86.5t-93 59.5t-125 22.5q-59 0 -109.5 -20.5t-86.5 -56.5t-56.5 -86t-20.5 -108v-284h-51v-21z" />
<glyph unicode="&#xe0;" horiz-adv-x="686" d="M74 248q0 -55 19.5 -102.5t55 -82t86 -55t111.5 -20.5q100 0 160.5 45t83.5 96v-129h20v502q0 78 -55 126t-154 48q-70 0 -115.5 -15.5t-78.5 -46.5l12 -16q57 57 182 57q90 0 139.5 -43t49.5 -118v-127q-25 53 -84.5 98t-159.5 45q-63 0 -113.5 -20.5t-86 -55.5t-54 -83 t-18.5 -103zM94 248q0 51 17.5 95t50.5 77t79 51t105 18q113 0 180.5 -67.5t67.5 -173.5q0 -102 -65.5 -171t-182.5 -69q-115 0 -183.5 69t-68.5 171zM231 1004q1 -15 17 -23q10 -6 34.5 -28.5t53.5 -51.5t55.5 -56.5t42.5 -43.5q4 -4 10 -4t7 6q0 6 -5 10q-16 16 -41.5 44 t-52 57.5t-48 53t-28.5 33.5q-12 20 -26 21q-18 0 -19 -18z" />
<glyph unicode="&#xe1;" horiz-adv-x="686" d="M74 248q0 -55 19.5 -102.5t55 -82t86 -55t111.5 -20.5q100 0 160.5 45t83.5 96v-129h20v502q0 78 -55 126t-154 48q-70 0 -115.5 -15.5t-78.5 -46.5l12 -16q57 57 182 57q90 0 139.5 -43t49.5 -118v-127q-25 53 -84.5 98t-159.5 45q-63 0 -113.5 -20.5t-86 -55.5t-54 -83 t-18.5 -103zM94 248q0 51 17.5 95t50.5 77t79 51t105 18q113 0 180.5 -67.5t67.5 -173.5q0 -102 -65.5 -171t-182.5 -69q-115 0 -183.5 69t-68.5 171zM344 803q0 -6 6 -6t10 4q14 16 42 43.5t56.5 56.5t53.5 51.5t35 28.5q16 8 16 23q0 18 -18 18q-14 0 -27 -21 q-6 -10 -27.5 -33.5t-48 -53t-53.5 -57.5t-41 -44q-4 -4 -4 -10z" />
<glyph unicode="&#xe2;" horiz-adv-x="686" d="M74 248q0 -55 19.5 -102.5t55 -82t86 -55t111.5 -20.5q100 0 160.5 45t83.5 96v-129h20v502q0 78 -55 126t-154 48q-70 0 -115.5 -15.5t-78.5 -46.5l12 -16q57 57 182 57q90 0 139.5 -43t49.5 -118v-127q-25 53 -84.5 98t-159.5 45q-63 0 -113.5 -20.5t-86 -55.5t-54 -83 t-18.5 -103zM94 248q0 51 17.5 95t50.5 77t79 51t105 18q113 0 180.5 -67.5t67.5 -173.5q0 -102 -65.5 -171t-182.5 -69q-115 0 -183.5 69t-68.5 171zM180 858l8 -16l193 96l197 -98l8 16l-205 102z" />
<glyph unicode="&#xe3;" horiz-adv-x="686" d="M74 248q0 -55 19.5 -102.5t55 -82t86 -55t111.5 -20.5q100 0 160.5 45t83.5 96v-129h20v502q0 78 -55 126t-154 48q-70 0 -115.5 -15.5t-78.5 -46.5l12 -16q57 57 182 57q90 0 139.5 -43t49.5 -118v-127q-25 53 -84.5 98t-159.5 45q-63 0 -113.5 -20.5t-86 -55.5t-54 -83 t-18.5 -103zM94 248q0 51 17.5 95t50.5 77t79 51t105 18q113 0 180.5 -67.5t67.5 -173.5q0 -102 -65.5 -171t-182.5 -69q-115 0 -183.5 69t-68.5 171zM184 795h21q0 29 25.5 51t66.5 22q31 0 47 -10t31 -24q18 -16 38.5 -28.5t67.5 -12.5q45 0 74 24.5t29 69.5h-21 q0 -33 -18.5 -53.5t-63.5 -20.5q-35 0 -54 10.5t-36 24.5q-16 16 -35.5 28.5t-58.5 12.5q-51 0 -82 -29.5t-31 -64.5z" />
<glyph unicode="&#xe4;" horiz-adv-x="686" d="M74 248q0 -55 19.5 -102.5t55 -82t86 -55t111.5 -20.5q100 0 160.5 45t83.5 96v-129h20v502q0 78 -55 126t-154 48q-70 0 -115.5 -15.5t-78.5 -46.5l12 -16q57 57 182 57q90 0 139.5 -43t49.5 -118v-127q-25 53 -84.5 98t-159.5 45q-63 0 -113.5 -20.5t-86 -55.5t-54 -83 t-18.5 -103zM94 248q0 51 17.5 95t50.5 77t79 51t105 18q113 0 180.5 -67.5t67.5 -173.5q0 -102 -65.5 -171t-182.5 -69q-115 0 -183.5 69t-68.5 171zM260 823q0 -14 3 -29.5t13 -15.5t13.5 15.5t3.5 29.5t-3 29.5t-14 15.5q-10 0 -13 -15t-3 -30zM465 823q0 -14 3 -29.5 t13 -15.5t13.5 15.5t3.5 29.5t-3 29.5t-14 15.5q-10 0 -13 -15t-3 -30z" />
<glyph unicode="&#xe5;" horiz-adv-x="686" d="M74 248q0 -55 19.5 -102.5t55 -82t86 -55t111.5 -20.5q100 0 160.5 45t83.5 96v-129h20v502q0 78 -55 126t-154 48q-70 0 -115.5 -15.5t-78.5 -46.5l12 -16q57 57 182 57q90 0 139.5 -43t49.5 -118v-127q-25 53 -84.5 98t-159.5 45q-63 0 -113.5 -20.5t-86 -55.5t-54 -83 t-18.5 -103zM94 248q0 51 17.5 95t50.5 77t79 51t105 18q113 0 180.5 -67.5t67.5 -173.5q0 -102 -65.5 -171t-182.5 -69q-115 0 -183.5 69t-68.5 171zM297 877q0 -41 29.5 -70t70.5 -29t71 29t30 70t-30 70.5t-71 29.5t-70.5 -29.5t-29.5 -70.5zM317 877q0 33 24 56t56 23 q33 0 56.5 -23.5t23.5 -55.5q0 -33 -23.5 -55.5t-56.5 -22.5t-56.5 22.5t-23.5 55.5z" />
<glyph unicode="&#xe6;" horiz-adv-x="1101" d="M45 248q0 -55 19.5 -102.5t55.5 -82t86 -55t111 -20.5q100 0 161 45t83 96v-129h21v215q25 -82 86 -140.5t166 -82.5l6 20q-115 23 -179.5 100.5t-72.5 163.5l514 355q-80 49 -193 49q-119 0 -206 -62.5t-121 -160.5v45q0 78 -55.5 126t-153.5 48q-70 0 -116 -15.5 t-79 -46.5l12 -16q57 57 183 57q90 0 139 -43t49 -118v-127q-25 53 -84 98t-160 45q-63 0 -113 -20.5t-86 -55.5t-54.5 -83t-18.5 -103zM66 248q0 51 17 95t50 77t79 51t105 18q113 0 180.5 -67.5t67.5 -173.5q0 -102 -65.5 -171t-182.5 -69q-115 0 -183 69t-68 171z M584 340q0 68 24.5 126t67.5 101t102.5 67.5t130.5 24.5q47 0 86 -9t68 -21l-477 -330l-1 15q-1 14 -1 26z" />
<glyph unicode="&#xe7;" horiz-adv-x="403" d="M59 334q0 -90 36 -164t102 -121q4 -23 7 -51.5t3 -60.5q0 -49 -12.5 -102.5t-47.5 -100.5l19 -13q39 47 52 101.5t13 105.5q0 29 -2 55.5t-6 49.5q23 -14 49.5 -24.5t55.5 -14.5v20q-117 25 -182.5 113t-65.5 207q0 117 66.5 206t181.5 111v21q-61 -12 -110.5 -43 t-84.5 -75t-54.5 -100.5t-19.5 -119.5z" />
<glyph unicode="&#xe8;" horiz-adv-x="593" d="M43 340q0 -127 64.5 -220t205.5 -128l6 20q-115 23 -179 100.5t-72 163.5l514 355q-80 49 -193 49q-74 0 -137.5 -25.5t-109.5 -71.5t-72.5 -108.5t-26.5 -134.5zM63 340q0 68 25 126t68 101t102 67.5t131 24.5q47 0 86 -9t68 -21l-477 -330l-2 15q-1 14 -1 26zM182 1004 q1 -15 17 -23q10 -6 34.5 -28.5t53 -51.5t55.5 -56.5t43 -43.5q4 -4 10 -4t6 6t-4 10q-16 16 -41.5 44t-52.5 57.5t-48.5 53t-27.5 33.5q-12 20 -26 21q-18 0 -19 -18z" />
<glyph unicode="&#xe9;" horiz-adv-x="593" d="M43 340q0 -127 64.5 -220t205.5 -128l6 20q-115 23 -179 100.5t-72 163.5l514 355q-80 49 -193 49q-74 0 -137.5 -25.5t-109.5 -71.5t-72.5 -108.5t-26.5 -134.5zM63 340q0 68 25 126t68 101t102 67.5t131 24.5q47 0 86 -9t68 -21l-477 -330l-2 15q-1 14 -1 26zM307 803 q0 -6 6 -6t11 4q14 16 41.5 43.5l56.5 56.5t53.5 51.5t34.5 28.5q16 8 16 23q0 18 -18 18q-14 0 -27 -21q-6 -10 -27.5 -33.5t-48 -53t-53 -57.5t-41.5 -44q-4 -4 -4 -10z" />
<glyph unicode="&#xea;" horiz-adv-x="593" d="M43 340q0 -127 64.5 -220t205.5 -128l6 20q-115 23 -179 100.5t-72 163.5l514 355q-80 49 -193 49q-74 0 -137.5 -25.5t-109.5 -71.5t-72.5 -108.5t-26.5 -134.5zM63 340q0 68 25 126t68 101t102 67.5t131 24.5q47 0 86 -9t68 -21l-477 -330l-2 15q-1 14 -1 26zM145 858 l9 -16l192 96l197 -98l8 16l-205 102z" />
<glyph unicode="&#xeb;" horiz-adv-x="593" d="M43 340q0 -127 64.5 -220t205.5 -128l6 20q-115 23 -179 100.5t-72 163.5l514 355q-80 49 -193 49q-74 0 -137.5 -25.5t-109.5 -71.5t-72.5 -108.5t-26.5 -134.5zM63 340q0 68 25 126t68 101t102 67.5t131 24.5q47 0 86 -9t68 -21l-477 -330l-2 15q-1 14 -1 26zM227 823 q0 -14 3 -29.5t14 -15.5q10 0 13 15.5t3 29.5t-3 29.5t-13 15.5t-13.5 -15t-3.5 -30zM432 823q0 -14 3 -29.5t14 -15.5q10 0 13 15.5t3 29.5t-3 29.5t-13 15.5t-13.5 -15t-3.5 -30z" />
<glyph unicode="&#xec;" horiz-adv-x="272" d="M-31 1004q1 -15 17 -23q10 -6 34.5 -28.5t53 -51.5t55.5 -56.5t43 -43.5q4 -4 10 -4t6 6t-4 10q-16 16 -41.5 44t-52.5 57.5t-48.5 53t-27.5 33.5q-12 20 -26 21q-18 0 -19 -18zM137 0h21v666h-21v-666z" />
<glyph unicode="&#xed;" horiz-adv-x="272" d="M115 803q0 -6 6 -6t10 4q14 16 42 43.5t56.5 56.5t53 51.5t34.5 28.5q16 8 17 23q0 18 -19 18q-14 0 -26 -21q-6 -10 -27.5 -33.5t-48.5 -53t-53.5 -57.5t-40.5 -44q-4 -4 -4 -10zM127 0h20v666h-20v-666z" />
<glyph unicode="&#xee;" horiz-adv-x="272" d="M-61 858l8 -16l192 96l197 -98l8 16l-205 102zM131 0h21v666h-21v-666z" />
<glyph unicode="&#xef;" horiz-adv-x="272" d="M18 823q0 -14 3.5 -29.5t13.5 -15.5t13 15.5t3 29.5t-3 29.5t-13 15.5t-13.5 -15t-3.5 -30zM127 0h20v666h-20v-666zM223 823q0 -14 3 -29.5t14 -15.5q10 0 13 15.5t3 29.5t-3 29.5t-13 15.5t-13.5 -15t-3.5 -30z" />
<glyph unicode="&#xf0;" horiz-adv-x="817" d="M61 332q0 -76 26 -139.5t72 -109.5t110.5 -71.5t140.5 -25.5t140 25.5t110.5 71.5t72 109.5t25.5 139.5v78q0 102 -20.5 200.5t-59.5 187.5t-92.5 164.5t-116.5 133.5l129 127l-16 16l-129 -129q-68 55 -145 87t-158 32v-21q76 0 147.5 -30.5t136.5 -85.5l-147 -146 l16 -16l148 147q57 -53 106 -120.5t86 -146.5t59.5 -164t28.5 -173q-39 94 -123 150.5t-198 56.5q-76 0 -140.5 -25.5t-110.5 -71.5t-72 -110.5t-26 -140.5zM82 332q0 72 24.5 132t67.5 103t103.5 67.5t132.5 24.5t132 -24.5t103 -67.5t67.5 -103t24.5 -132t-24.5 -132.5 t-67.5 -103.5t-103.5 -66.5t-131.5 -23.5q-72 0 -132.5 23.5t-103.5 66.5t-67.5 103.5t-24.5 132.5z" />
<glyph unicode="&#xf1;" horiz-adv-x="706" d="M106 0h21v457q10 80 69.5 140t170.5 60q113 0 172 -47t59 -159v-451h20v455q0 117 -66 170t-185 53q-55 0 -97.5 -15.5t-71 -38t-47 -48t-24.5 -48.5v138h-21v-666zM178 795h21q0 29 25.5 51t66.5 22q31 0 47 -10t31 -24q18 -16 38.5 -28.5t67.5 -12.5q45 0 74 24.5 t29 69.5h-21q0 -33 -18.5 -53.5t-63.5 -20.5q-35 0 -54.5 10.5t-35.5 24.5q-16 16 -35.5 28.5t-58.5 12.5q-51 0 -82 -29.5t-31 -64.5z" />
<glyph unicode="&#xf2;" horiz-adv-x="808" d="M61 332q0 -76 26 -139.5t72 -109.5t110.5 -71.5t140.5 -25.5t140 25.5t110.5 71.5t72 109.5t25.5 139.5t-25.5 140.5t-72 110.5t-111 71.5t-139.5 25.5q-76 0 -140.5 -25.5t-110.5 -71.5t-72 -110.5t-26 -140.5zM82 332q0 72 24.5 132t67.5 103t103.5 67.5t132.5 24.5 t132 -24.5t103 -67.5t67.5 -103.5t24.5 -131.5q0 -72 -24.5 -132.5t-67.5 -103.5t-103.5 -66.5t-131.5 -23.5q-72 0 -132.5 23.5t-103.5 66.5t-67.5 103.5t-24.5 132.5zM223 1004q1 -15 17 -23q10 -6 34.5 -28.5t53 -51.5t55.5 -56.5t43 -43.5q4 -4 10 -4t6 6t-4 10 q-16 16 -41.5 44t-52.5 57.5t-48.5 53t-27.5 33.5q-12 20 -26 21q-18 0 -19 -18z" />
<glyph unicode="&#xf3;" horiz-adv-x="808" d="M61 332q0 -76 26 -139.5t72 -109.5t110.5 -71.5t140.5 -25.5t140 25.5t110.5 71.5t72 109.5t25.5 139.5t-25.5 140.5t-72 110.5t-111 71.5t-139.5 25.5q-76 0 -140.5 -25.5t-110.5 -71.5t-72 -110.5t-26 -140.5zM82 332q0 72 24.5 132t67.5 103t103.5 67.5t132.5 24.5 t132 -24.5t103 -67.5t67.5 -103.5t24.5 -131.5q0 -72 -24.5 -132.5t-67.5 -103.5t-103.5 -66.5t-131.5 -23.5q-72 0 -132.5 23.5t-103.5 66.5t-67.5 103.5t-24.5 132.5zM367 803q0 -6 6 -6t10 4q14 16 42 43.5t56.5 56.5t53 51.5t34.5 28.5q16 8 17 23q0 18 -19 18 q-14 0 -26 -21q-6 -10 -27.5 -33.5t-48.5 -53t-53.5 -57.5t-40.5 -44q-4 -4 -4 -10z" />
<glyph unicode="&#xf4;" horiz-adv-x="819" d="M61 332q0 -76 26 -139.5t72 -109.5t110.5 -71.5t140.5 -25.5t140 25.5t110.5 71.5t72 109.5t25.5 139.5t-25.5 140.5t-72 110.5t-111 71.5t-139.5 25.5q-76 0 -140.5 -25.5t-110.5 -71.5t-72 -110.5t-26 -140.5zM82 332q0 72 24.5 132t67.5 103t103.5 67.5t132.5 24.5 t132 -24.5t103 -67.5t67.5 -103.5t24.5 -131.5q0 -72 -24.5 -132.5t-67.5 -103.5t-103.5 -66.5t-131.5 -23.5q-72 0 -132.5 23.5t-103.5 66.5t-67.5 103.5t-24.5 132.5zM213 858l8 -16l193 96l196 -98l8 16l-204 102z" />
<glyph unicode="&#xf5;" horiz-adv-x="819" d="M61 332q0 -76 26 -139.5t72 -109.5t110.5 -71.5t140.5 -25.5t140 25.5t110.5 71.5t72 109.5t25.5 139.5t-25.5 140.5t-72 110.5t-111 71.5t-139.5 25.5q-76 0 -140.5 -25.5t-110.5 -71.5t-72 -110.5t-26 -140.5zM82 332q0 72 24.5 132t67.5 103t103.5 67.5t132.5 24.5 t132 -24.5t103 -67.5t67.5 -103.5t24.5 -131.5q0 -72 -24.5 -132.5t-67.5 -103.5t-103.5 -66.5t-131.5 -23.5q-72 0 -132.5 23.5t-103.5 66.5t-67.5 103.5t-24.5 132.5zM229 795h21q0 29 25.5 51t66.5 22q31 0 47.5 -10t30.5 -24q18 -16 38.5 -28.5t67.5 -12.5q45 0 74 24.5 t29 69.5h-21q0 -33 -18.5 -53.5t-63.5 -20.5q-35 0 -54 10.5t-36 24.5q-16 16 -35.5 28.5t-58.5 12.5q-51 0 -82 -29.5t-31 -64.5z" />
<glyph unicode="&#xf6;" horiz-adv-x="819" d="M61 332q0 -76 26 -139.5t72 -109.5t110.5 -71.5t140.5 -25.5t140 25.5t110.5 71.5t72 109.5t25.5 139.5t-25.5 140.5t-72 110.5t-111 71.5t-139.5 25.5q-76 0 -140.5 -25.5t-110.5 -71.5t-72 -110.5t-26 -140.5zM82 332q0 72 24.5 132t67.5 103t103.5 67.5t132.5 24.5 t132 -24.5t103 -67.5t67.5 -103.5t24.5 -131.5q0 -72 -24.5 -132.5t-67.5 -103.5t-103.5 -66.5t-131.5 -23.5q-72 0 -132.5 23.5t-103.5 66.5t-67.5 103.5t-24.5 132.5zM299 823q0 -14 3 -29.5t13 -15.5t13.5 15.5t3.5 29.5t-3 29.5t-14 15.5q-10 0 -13 -15t-3 -30zM504 823 q0 -14 3 -29.5t13 -15.5t13.5 15.5t3.5 29.5t-3.5 29.5t-13.5 15.5t-13 -15t-3 -30z" />
<glyph unicode="&#xf7;" horiz-adv-x="706" d="M80 471h563v21h-563v-21zM336 254q0 -16 5 -31.5t19 -15.5t19.5 15.5t5.5 31.5q0 14 -5 28.5t-20 14.5q-14 0 -19 -14.5t-5 -28.5zM336 713q0 -16 5 -31.5t19 -15.5t19.5 15.5t5.5 31.5q0 14 -5 28.5t-20 14.5q-14 0 -19 -14.5t-5 -28.5z" />
<glyph unicode="&#xf8;" horiz-adv-x="817" d="M61 332q0 -106 49.5 -187.5t133.5 -121.5l-23 -58h25l20 47q61 -27 144 -26q76 0 140 25.5t110.5 71.5t72 109.5t25.5 139.5q0 121 -62.5 208t-167.5 122l19 45h-23l-16 -39q-47 12 -98 12q-76 0 -140.5 -25.5t-110.5 -71.5t-72 -110.5t-26 -140.5zM82 332q0 72 24.5 132 t67.5 103t103.5 67.5t132.5 24.5q45 0 92 -10l-250 -608q-78 41 -124 115.5t-46 175.5zM272 31l248 612q100 -31 158.5 -114t58.5 -197q0 -72 -24.5 -132.5t-67.5 -103.5t-103 -66.5t-132 -23.5q-76 0 -138 25z" />
<glyph unicode="&#xf9;" horiz-adv-x="706" d="M111 213q0 -123 69.5 -177t177.5 -54q109 0 178.5 54t69.5 177v453h-20v-453q0 -57 -17.5 -97t-48.5 -65.5t-72.5 -37t-89.5 -11.5q-96 0 -161.5 48t-65.5 163v453h-20v-453zM150 1004q0 -15 16 -23q10 -6 34.5 -28.5t53.5 -51.5t55.5 -56.5t42.5 -43.5q4 -4 10 -4t7 6 q0 6 -4 10q-16 16 -42 44t-52.5 57.5t-48 53t-27.5 33.5q-12 20 -27 21q-18 0 -18 -18z" />
<glyph unicode="&#xfa;" horiz-adv-x="706" d="M111 213q0 -123 69.5 -177t177.5 -54q109 0 178.5 54t69.5 177v453h-20v-453q0 -57 -17.5 -97t-48.5 -65.5t-72.5 -37t-89.5 -11.5q-96 0 -161.5 48t-65.5 163v453h-20v-453zM344 803q0 -6 6 -6t10 4q14 16 42 43.5t56.5 56.5t53.5 51.5t35 28.5q16 8 16 23q0 18 -18 18 q-14 0 -27 -21q-6 -10 -27.5 -33.5t-48 -53t-53.5 -57.5t-41 -44q-4 -4 -4 -10z" />
<glyph unicode="&#xfb;" horiz-adv-x="706" d="M111 213q0 -123 69.5 -177t177.5 -54q109 0 178.5 54t69.5 177v453h-20v-453q0 -57 -17.5 -97t-48.5 -65.5t-72.5 -37t-89.5 -11.5q-96 0 -161.5 48t-65.5 163v453h-20v-453zM172 858l8 -16l193 96l196 -98l9 16l-205 102z" />
<glyph unicode="&#xfc;" horiz-adv-x="706" d="M111 213q0 -123 69.5 -177t177.5 -54q109 0 178.5 54t69.5 177v453h-20v-453q0 -57 -17.5 -97t-48.5 -65.5t-72.5 -37t-89.5 -11.5q-96 0 -161.5 48t-65.5 163v453h-20v-453zM240 823q0 -14 3 -29.5t13 -15.5t13 15.5t3 29.5t-3 29.5t-13 15.5t-13 -15t-3 -30zM444 823 q0 -14 3.5 -29.5t13.5 -15.5t13 15.5t3 29.5t-3 29.5t-13 15.5t-13.5 -15t-3.5 -30z" />
<glyph unicode="&#xfd;" horiz-adv-x="585" d="M45 666l240 -682l-232 -664h19l473 1346h-23l-227 -652l-227 652h-23zM262 803q0 -6 6 -6t11 4q14 16 41.5 43.5l56.5 56.5t53.5 51.5t34.5 28.5q16 8 16 23q0 18 -18 18q-14 0 -27 -21q-6 -10 -27.5 -33.5t-48 -53t-53 -57.5t-41.5 -44q-4 -4 -4 -10z" />
<glyph unicode="&#xfe;" horiz-adv-x="854" d="M109 -623h20v824q8 -27 30.5 -64t61.5 -70.5t96.5 -58t137.5 -24.5q82 0 146.5 27.5t109.5 74.5t68.5 110.5t23.5 135.5q0 70 -23.5 133t-68.5 110.5t-109.5 75t-146.5 27.5t-139.5 -24.5t-96.5 -58.5t-60.5 -71t-29.5 -61v825h-20v-1911zM127 332q0 68 22.5 127 t65.5 103t103.5 69.5t136.5 25.5t136 -25.5t103 -69.5t65.5 -103.5t22.5 -126.5q0 -68 -22.5 -127.5t-64.5 -104.5t-103 -70.5t-137 -25.5q-78 0 -138.5 25.5t-102.5 70.5t-64.5 104.5t-22.5 127.5z" />
<glyph unicode="&#xff;" horiz-adv-x="583" d="M45 666l240 -682l-232 -664h19l473 1346h-23l-227 -652l-227 652h-23zM176 823q0 -14 3 -29.5t14 -15.5q10 0 13 15.5t3 29.5t-3 29.5t-13 15.5t-13.5 -15t-3.5 -30zM381 823q0 -14 3 -29.5t13 -15.5t13.5 15.5t3.5 29.5t-3 29.5t-14 15.5q-10 0 -13 -15t-3 -30z" />
<glyph unicode="&#x152;" horiz-adv-x="1810" d="M59 612q0 -131 49.5 -245.5t134.5 -199.5t199.5 -134t245.5 -49q111 0 209 34.5t178 97t137.5 147.5t83.5 188v-21q0 -197 113 -317.5t334 -120.5v20q-207 0 -316.5 117t-109.5 309v539h426v20h-426v201h426v21h-447v-222h-39v-20h39v-205q-27 100 -84 186t-137 149.5 t-178 98.5t-209 35q-131 0 -245.5 -49t-199.5 -134t-134.5 -200t-49.5 -246zM80 612q0 125 48 237t130 193.5t192.5 130t237.5 48.5q125 0 236.5 -48.5t193.5 -130t130 -193.5t48 -237q0 -127 -48 -237.5t-130 -192.5t-193.5 -130t-236.5 -48q-127 0 -237.5 48t-192.5 130 t-130 192.5t-48 237.5z" />
<glyph unicode="&#x153;" horiz-adv-x="1282" d="M61 332q0 -76 26 -139.5t72 -109.5t110.5 -71.5t140.5 -25.5q129 0 220 71.5t118 188.5q20 -92 83.5 -159t176.5 -95l6 20q-115 23 -179.5 100.5t-72.5 163.5l514 355q-80 49 -193 49q-129 0 -219 -71.5t-116 -186.5q-27 117 -118 187.5t-220 70.5q-76 0 -140.5 -25.5 t-110.5 -71.5t-72 -110.5t-26 -140.5zM82 332q0 72 24.5 132t67.5 103t103.5 67.5t132.5 24.5t132 -24.5t103 -67.5t67.5 -103.5t24.5 -131.5q0 -72 -24.5 -132.5t-67.5 -103.5t-103.5 -66.5t-131.5 -23.5q-72 0 -132.5 23.5t-103.5 66.5t-67.5 103.5t-24.5 132.5zM758 340 q0 68 24.5 126t67.5 101t102.5 67.5t130.5 24.5q47 0 86 -9t68 -21l-477 -330l-1 15q-1 14 -1 26z" />
<glyph unicode="&#x178;" horiz-adv-x="706" d="M35 1219l311 -273v-946h21v946l309 273h-29l-291 -256l-293 256h-28zM238 1327q0 -14 3 -29.5t13 -15.5t13 15.5t3 29.5t-3 29.5t-13 15.5t-13 -15.5t-3 -29.5zM442 1327q0 -14 3.5 -29.5t13.5 -15.5t13 15.5t3 29.5t-3 29.5t-13 15.5t-13.5 -15.5t-3.5 -29.5z" />
<glyph unicode="&#x2c6;" horiz-adv-x="501" d="M55 883l8 -17l193 97l197 -99l8 17l-205 102z" />
<glyph unicode="&#x2dc;" horiz-adv-x="563" d="M88 795h21q0 29 25.5 51t66.5 22q31 0 47 -10t31 -24q18 -16 38.5 -28.5t67.5 -12.5q45 0 73.5 24.5t28.5 69.5h-20q0 -33 -18.5 -53.5t-63.5 -20.5q-35 0 -54.5 10.5t-35.5 24.5q-16 16 -35.5 28.5t-58.5 12.5q-51 0 -82 -29.5t-31 -64.5z" />
<glyph unicode="&#x2000;" horiz-adv-x="773" />
<glyph unicode="&#x2001;" horiz-adv-x="1546" />
<glyph unicode="&#x2002;" horiz-adv-x="773" />
<glyph unicode="&#x2003;" horiz-adv-x="1546" />
<glyph unicode="&#x2004;" horiz-adv-x="515" />
<glyph unicode="&#x2005;" horiz-adv-x="386" />
<glyph unicode="&#x2006;" horiz-adv-x="257" />
<glyph unicode="&#x2007;" horiz-adv-x="257" />
<glyph unicode="&#x2008;" horiz-adv-x="193" />
<glyph unicode="&#x2009;" horiz-adv-x="309" />
<glyph unicode="&#x200a;" horiz-adv-x="85" />
<glyph unicode="&#x2010;" d="M80 471h430v21h-430v-21z" />
<glyph unicode="&#x2011;" d="M80 471h430v21h-430v-21z" />
<glyph unicode="&#x2012;" d="M80 471h430v21h-430v-21z" />
<glyph unicode="&#x2013;" horiz-adv-x="706" d="M80 471h563v21h-563v-21z" />
<glyph unicode="&#x2014;" horiz-adv-x="1064" d="M131 471h842v21h-842v-21z" />
<glyph unicode="&#x2018;" horiz-adv-x="241" d="M39 1241l154 -207l16 15l-152 206z" />
<glyph unicode="&#x2019;" horiz-adv-x="241" d="M41 1049l16 -15l150 205l-17 14z" />
<glyph unicode="&#x201a;" horiz-adv-x="245" d="M41 -16l16 -15l150 205l-17 14z" />
<glyph unicode="&#x201c;" horiz-adv-x="368" d="M43 1239l150 -205l16 15l-150 204zM168 1239l149 -205l17 15l-150 204z" />
<glyph unicode="&#x201d;" horiz-adv-x="368" d="M49 1049l17 -13l149 203l-14 14zM174 1049l16 -13l150 203l-16 14z" />
<glyph unicode="&#x201e;" horiz-adv-x="378" d="M49 4l17 -12l149 203l-14 14zM174 4l16 -12l150 203l-16 14z" />
<glyph unicode="&#x2022;" horiz-adv-x="593" d="M76 455q0 -98 62.5 -163t160.5 -65t160.5 64.5t62.5 163.5q0 98 -62.5 162.5t-160.5 64.5t-160.5 -64.5t-62.5 -162.5z" />
<glyph unicode="&#x2026;" horiz-adv-x="614" d="M88 45q0 -16 5 -31.5t20 -15.5q14 0 19 15.5t5 31.5q0 14 -5 28.5t-19 14.5t-19.5 -14.5t-5.5 -28.5zM293 45q0 -16 5 -31.5t19 -15.5t19.5 15.5t5.5 31.5q0 14 -5 28.5t-20 14.5q-14 0 -19 -14.5t-5 -28.5zM498 45q0 -16 5 -31.5t19 -15.5t19.5 15.5t5.5 31.5 q0 14 -5 28.5t-20 14.5q-14 0 -19 -14.5t-5 -28.5z" />
<glyph unicode="&#x202f;" horiz-adv-x="309" />
<glyph unicode="&#x2039;" horiz-adv-x="327" d="M61 379l154 -307h21l-154 307l154 307h-21z" />
<glyph unicode="&#x203a;" horiz-adv-x="317" d="M80 72h20l154 307l-154 307h-20l153 -307z" />
<glyph unicode="&#x205f;" horiz-adv-x="386" />
<glyph unicode="&#x2122;" horiz-adv-x="675" d="M76 1257h102v-305h17v305h102v17h-221v-17zM287 954h14l59 277l101 -293l100 293l57 -277h15l-68 324l-104 -297l-103 297z" />
<glyph unicode="&#xe000;" horiz-adv-x="665" d="M0 0v666h666v-666h-666z" />
</font>
</defs>
</svg>
